<svg width="30" height="30" viewBox="0 0 30 30" fill="none" xmlns="http://www.w3.org/2000/svg">
<path d="M29.6028 0.0693645C29.3391 -0.0574574 29.024 -0.00740479 28.8129 0.195197C27.2026 1.73949 24.4278 4.02253 20.3538 6.12903C20.1756 6.22122 20.0454 6.38515 19.9963 6.5795C19.6639 7.89126 19.0116 9.32299 18.0577 10.835L17.6695 11.4503L18.3933 8.29993C18.4523 8.04307 18.3621 7.77483 18.16 7.60562C17.9577 7.43642 17.6775 7.39486 17.4349 7.49818L17.3512 7.53347C9.13127 10.9911 6.70207 16.3467 5.98564 19.2311C5.73701 20.2322 5.61298 21.2236 5.61719 22.178C5.61884 22.5463 5.63964 22.8972 5.67908 23.2257L0.20063 28.8084C-0.0643392 29.0783 -0.0672274 29.5097 0.194194 29.7832C0.331753 29.9271 0.516349 30 0.701604 30C0.868293 30 1.03539 29.9409 1.16899 29.8216L16.2228 16.3106C16.2967 16.3154 7.65121 25.3651 7.72952 25.3651C8.90294 25.3651 10.5239 24.8245 12.4169 23.8025C14.9697 22.424 17.8226 20.3087 20.6671 17.6852C20.9008 17.4699 20.9602 17.1241 20.8118 16.8431C20.6634 16.5622 20.3446 16.4159 20.0345 16.4873L18.2716 16.8917L18.8876 16.5036C20.6069 15.4204 22.2142 14.7298 23.6647 14.4506C23.8216 14.4204 23.9636 14.3375 24.067 14.2157C27.479 10.1958 28.9235 6.22386 29.5344 3.59968C29.7564 2.64588 29.9123 1.69208 29.9971 0.764741C30.0237 0.473496 29.8666 0.196186 29.6028 0.0693645Z" fill="#E9AB6E"/>
</svg>
