<svg width="800" height="800" viewBox="0 0 800 800" fill="none" xmlns="http://www.w3.org/2000/svg">
<g filter="url(#filter0_d_1_9)">
<path d="M768.985 5.56598C774.463 0.308009 782.64 -0.991313 789.485 2.30035C796.332 5.59176 800.408 12.7884 799.719 20.3472C797.459 45.052 793.305 70.4639 787.391 95.8775C771.114 165.795 732.624 271.636 641.699 378.76C639.016 381.921 635.33 384.072 631.259 384.858C592.499 392.319 549.579 410.765 503.697 439.671L487.271 450.02L487.648 450.93L534.658 440.147C542.707 438.294 550.982 442.09 554.833 449.381C558.683 456.675 557.144 465.648 551.079 471.238H551.078C475.246 541.176 399.201 597.557 331.175 634.291C281.235 661.253 238.471 675.599 207.384 675.892C207.754 675.448 208.297 674.821 209.009 674.022C210.579 672.258 212.945 669.669 215.995 666.37C222.094 659.772 230.919 650.347 241.563 639.034C262.852 616.408 291.413 586.24 319.978 556.066C348.542 525.893 377.111 495.715 398.416 473.072C409.068 461.751 417.905 452.312 424.018 445.699C427.074 442.393 429.451 439.791 431.034 438.012C431.825 437.124 432.422 436.437 432.807 435.968C432.997 435.737 433.144 435.547 433.238 435.411C433.281 435.349 433.333 435.269 433.367 435.189C433.378 435.164 433.424 435.056 433.413 434.919C433.401 434.842 433.331 434.679 433.266 434.598C433.184 434.531 433.016 434.459 432.936 434.448L432.725 434.434L432.568 434.575L31.1338 794.867C27.6661 797.964 23.3295 799.498 19.0029 799.498C14.194 799.497 9.40405 797.606 5.83398 793.872C-0.950766 786.773 -0.8757 775.576 6.00098 768.572L152.093 619.7L152.261 619.528L152.232 619.29C151.183 610.552 150.63 601.213 150.586 591.41C150.474 566.002 153.776 539.609 160.396 512.949C179.468 436.164 244.152 293.485 463.186 201.352H463.187L465.42 200.412L465.422 200.411C471.718 197.729 478.989 198.807 484.238 203.199C489.485 207.59 491.826 214.552 490.295 221.218L470.992 305.227L471.902 305.606L482.256 289.198C507.711 248.848 525.132 210.62 534.012 175.576V175.575C535.288 170.531 538.668 166.277 543.292 163.884C651.98 107.686 726.013 46.775 768.985 5.56598Z" fill="#E9AB6E" stroke="black"/>
</g>
<defs>
<filter id="filter0_d_1_9" x="-3.70605" y="-0.000427246" width="808" height="807.998" filterUnits="userSpaceOnUse" color-interpolation-filters="sRGB">
<feFlood flood-opacity="0" result="BackgroundImageFix"/>
<feColorMatrix in="SourceAlpha" type="matrix" values="0 0 0 0 0 0 0 0 0 0 0 0 0 0 0 0 0 0 127 0" result="hardAlpha"/>
<feOffset dy="4"/>
<feGaussianBlur stdDeviation="2"/>
<feComposite in2="hardAlpha" operator="out"/>
<feColorMatrix type="matrix" values="0 0 0 0 0 0 0 0 0 0 0 0 0 0 0 0 0 0 0.25 0"/>
<feBlend mode="normal" in2="BackgroundImageFix" result="effect1_dropShadow_1_9"/>
<feBlend mode="normal" in="SourceGraphic" in2="effect1_dropShadow_1_9" result="shape"/>
</filter>
</defs>
</svg>
