<svg width="3166" height="729" viewBox="0 0 3166 729" fill="none" xmlns="http://www.w3.org/2000/svg">
<mask id="path-1-outside-1_63_98" maskUnits="userSpaceOnUse" x="0" y="0" width="3166" height="729" fill="black">
<rect fill="white" width="3166" height="729"/>
<path d="M141.758 296.214L283.89 140.904C316.848 105.095 333.327 79.5571 333.327 64.2898C333.327 41.2501 316.848 29.1751 283.89 28.0647V8.91123H459.323V28.0647C444.904 28.3423 430.37 32.0897 415.722 39.307C401.303 46.5242 388.028 55.9622 375.898 67.6208C363.768 79.2795 341.223 103.846 308.265 141.32L223.467 236.255L397.87 449.858C437.694 498.991 464.358 528.693 477.862 538.963C491.366 549.234 508.875 554.369 530.389 554.369V573.523H288.697V554.369H297.966C324.058 554.369 340.308 551.732 346.716 546.458C353.125 541.184 356.329 534.661 356.329 526.888C356.329 515.23 339.736 489.275 306.549 449.025L175.06 288.302L141.758 323.695V426.541C141.758 470.955 142.674 500.101 144.505 513.981C146.336 527.582 150.913 537.714 158.237 544.376C165.79 551.038 180.095 554.369 201.152 554.369H210.078V573.523H1V554.369H15.4192C35.3313 554.369 49.0639 551.316 56.6167 545.209C64.3985 539.102 69.3193 529.664 71.3792 516.895C73.668 503.849 74.8123 473.73 74.8123 426.541V149.648C74.8123 103.013 73.5535 73.3114 71.0359 60.5424C68.7471 47.7734 64.0552 39.1682 56.9601 34.7268C49.8649 30.2854 33.2714 28.0647 7.17964 28.0647V8.91123H213.168V28.0647H204.585C181.697 28.0647 166.706 30.4242 159.611 35.1432C152.516 39.5846 147.709 48.051 145.192 60.5424C142.903 73.0338 141.758 102.736 141.758 149.648V296.214Z"/>
<path d="M618.703 347.845C618.016 355.895 617.673 363.112 617.673 369.497C617.673 375.603 617.559 380.6 617.33 384.486C617.33 504.681 648.113 564.779 709.681 564.779C751.336 564.779 780.861 542.156 798.256 496.909H814.735C811.759 508.568 807.296 519.393 801.346 529.387C795.624 539.102 788.757 547.707 780.747 555.202C772.965 562.697 764.153 568.943 754.312 573.939C744.699 579.213 734.514 582.822 723.757 584.765C712.084 591.982 703.387 600.449 697.665 610.164C691.943 620.157 689.082 632.51 689.082 647.222C689.082 665.543 694.804 678.312 706.248 685.529C717.692 692.746 734.972 696.355 758.088 696.355C770.905 696.355 784.065 693.44 797.569 687.611L803.749 700.935C778.801 718.978 753.396 728 727.533 728C716.089 728 705.676 726.334 696.292 723.003C686.908 719.95 678.897 715.37 672.26 709.263C665.622 703.434 660.473 696.216 656.811 687.611C653.378 679.283 651.661 669.984 651.661 659.714C651.661 645.002 654.98 631.261 661.617 618.492C668.254 606.001 678.211 595.452 691.485 586.847C674.777 585.459 658.527 580.324 642.735 571.441C626.942 562.558 612.981 550.483 600.851 535.216C588.72 519.671 578.879 501.212 571.326 479.837C564.002 458.186 560.34 433.758 560.34 406.554C560.34 379.906 563.773 355.201 570.639 332.439C577.734 309.399 587.347 289.552 599.477 272.896C611.837 255.964 626.37 242.778 643.078 233.34C659.786 223.625 677.867 218.767 697.322 218.767C733.942 218.767 762.437 232.369 782.807 259.572C802.948 286.498 813.59 315.922 814.735 347.845H618.703ZM754.655 331.19C755.342 325.083 755.685 319.392 755.685 314.118C755.685 301.904 754.083 291.078 750.879 281.64C747.674 271.925 743.326 263.875 737.833 257.49C732.34 250.828 725.817 245.832 718.264 242.501C710.94 238.892 703.044 237.088 694.575 237.088C652.691 237.088 627.858 268.455 620.076 331.19H754.655Z"/>
<path d="M1109.04 268.733V135.491C1109.04 99.127 1108.58 76.226 1107.66 66.7881C1106.98 57.3501 1103.77 50.1329 1098.05 45.1363C1092.33 40.1397 1082.14 37.6415 1067.5 37.6415H1060.29V18.488C1087.98 17.6552 1118.31 11.8259 1151.26 1H1158.47V459.435C1158.47 499.13 1159.05 523.28 1160.19 531.885C1161.33 540.49 1164.88 546.875 1170.83 551.038C1177.01 555.202 1188.34 557.284 1204.82 557.284V576.438C1171.63 577.27 1142.11 580.879 1116.25 587.263C1113.5 574.217 1112.13 553.675 1112.13 525.639C1095.19 546.181 1077.68 561.587 1059.6 571.857C1041.75 582.128 1023.21 587.263 1003.98 587.263C967.592 587.263 936.121 569.498 909.572 533.967C883.251 498.436 870.091 455.41 870.091 404.889C870.091 349.372 883.594 304.541 910.602 270.398C937.609 235.977 969.766 218.767 1007.07 218.767C1026.07 218.767 1044.04 222.931 1060.97 231.258C1077.91 239.586 1093.93 252.077 1109.04 268.733ZM1109.04 292.883C1093.93 277.06 1078.71 265.263 1063.38 257.49C1048.27 249.44 1033.05 245.415 1017.72 245.415C991.852 245.415 970.224 257.49 952.829 281.64C935.663 305.79 927.081 345.208 927.081 399.892C927.081 455.41 935.892 496.354 953.516 522.724C971.368 549.095 993.34 562.281 1019.43 562.281C1036.83 562.281 1052.96 557.284 1067.84 547.291C1082.72 537.298 1096.45 522.308 1109.04 502.322V292.883Z"/>
<path d="M1233.4 573.523V560.615L1419.82 251.661H1317.51C1304.46 251.661 1295.54 252.771 1290.73 254.992C1286.15 256.935 1280.55 263.597 1273.91 274.978C1267.5 286.082 1260.98 303.431 1254.34 327.026H1241.64L1246.1 232.507H1481.61V247.497L1296.22 554.369H1373.13C1398.07 554.369 1414.78 552.704 1423.25 549.373C1431.72 546.042 1440.07 537.853 1448.31 524.806C1456.55 511.482 1464.79 491.496 1473.03 464.848H1486.76L1478.52 573.523H1233.4Z"/>
<path d="M1566.49 44.7199C1566.49 32.7837 1569.93 22.513 1576.79 13.9078C1583.89 5.3026 1592.36 1 1602.2 1C1612.04 1 1620.39 5.3026 1627.26 13.9078C1634.13 22.513 1637.56 32.7837 1637.56 44.7199C1637.56 56.9338 1634.13 67.3433 1627.26 75.9485C1620.39 84.5536 1612.04 88.8562 1602.2 88.8562C1592.36 88.8562 1583.89 84.5536 1576.79 75.9485C1569.93 67.3433 1566.49 56.9338 1566.49 44.7199ZM1632.75 218.767V456.52C1632.75 492.884 1633.21 515.785 1634.13 525.223C1635.04 534.661 1638.36 541.878 1644.08 546.875C1649.81 551.871 1659.99 554.369 1674.64 554.369H1681.85V573.523H1530.45V554.369H1542.12C1558.37 554.369 1568.9 551.594 1573.7 546.042C1578.74 540.212 1581.6 533.412 1582.29 525.639C1583.2 517.589 1583.66 494.549 1583.66 456.52V353.258C1583.66 313.285 1582.06 288.858 1578.85 279.975C1575.88 271.092 1571.76 265.54 1566.49 263.32C1561.46 261.099 1552.53 259.989 1539.72 259.989H1530.45V240.835C1571.19 235.838 1602.77 228.482 1625.2 218.767H1632.75Z"/>
<path d="M1979.58 347.845H1783.55C1782.64 364.222 1782.18 376.436 1782.18 384.486C1782.18 444.445 1789.85 489.553 1805.18 519.81C1820.74 549.789 1843.86 564.779 1874.53 564.779C1916.18 564.779 1945.71 542.156 1963.1 496.909H1979.58C1972.26 525.223 1957.73 547.43 1935.98 563.53C1914.24 579.352 1890.55 587.263 1864.92 587.263C1841.11 587.263 1818.57 580.046 1797.28 565.612C1776.23 550.9 1758.95 530.219 1745.44 503.571C1731.94 476.923 1725.19 444.584 1725.19 406.554C1725.19 352.703 1738.23 308.011 1764.33 272.48C1790.42 236.671 1823.03 218.767 1862.17 218.767C1899.02 218.767 1927.51 232.369 1947.65 259.572C1967.8 286.776 1978.44 316.2 1979.58 347.845ZM1919.5 331.19C1920.19 324.805 1920.53 319.115 1920.53 314.118C1920.53 289.69 1914.58 270.814 1902.68 257.49C1891.01 243.888 1876.59 237.088 1859.42 237.088C1817.77 237.088 1792.93 268.455 1784.92 331.19H1919.5Z"/>
<path d="M2126.95 305.79C2134.73 281.085 2147.32 260.405 2164.71 243.75C2182.33 227.094 2199.5 218.767 2216.21 218.767C2231.31 218.767 2243.22 224.457 2251.91 235.838C2260.61 247.22 2264.96 258.878 2264.96 270.814C2264.96 278.864 2262.67 285.804 2258.09 291.633C2253.74 297.463 2248.37 300.377 2241.96 300.377C2230.51 300.377 2221.82 290.107 2215.86 269.565C2211.75 255.686 2205.57 248.746 2197.33 248.746C2187.48 248.746 2175.7 256.935 2161.96 273.313C2148.23 289.413 2139.42 306.207 2135.53 323.695C2131.64 341.183 2129.69 365.194 2129.69 395.729V456.52C2129.69 492.884 2130.04 515.785 2130.72 525.223C2131.64 534.661 2134.96 541.878 2140.68 546.875C2146.4 551.871 2156.59 554.369 2171.23 554.369H2180.85V573.523H2031.51V554.369H2038.72C2052.45 554.369 2062.17 552.149 2067.9 547.707C2073.85 542.988 2077.4 536.465 2078.54 528.137C2079.68 519.81 2080.26 495.937 2080.26 456.52V360.336C2080.26 323.695 2079.8 300.794 2078.88 291.633C2078.2 282.195 2074.99 274.978 2069.27 269.982C2063.55 264.708 2053.36 262.07 2038.72 262.07H2031.51V243.333C2053.02 240.28 2081.17 232.091 2115.96 218.767C2122.6 240.696 2126.26 269.704 2126.95 305.79Z"/>
<path d="M2305.55 584.349V472.342H2318.94C2334.5 537.02 2362.31 569.359 2402.37 569.359C2419.76 569.359 2432.69 562.975 2441.16 550.206C2449.86 537.437 2454.21 523.418 2454.21 508.151C2454.21 490.386 2449.63 475.812 2440.47 464.431C2431.09 453.05 2412.89 439.31 2385.89 423.21C2357.51 406.277 2337.14 389.622 2324.78 373.244C2312.42 357.144 2306.24 337.296 2306.24 313.702C2306.24 291.217 2312.88 269.843 2326.15 249.579C2339.43 229.038 2358.08 218.767 2382.11 218.767C2406.6 218.767 2426.86 230.842 2442.88 254.992C2446.31 250.828 2450.77 240.696 2456.27 224.596H2468.97V329.94H2456.27C2451.69 304.68 2442.76 283.028 2429.49 264.985C2416.44 246.664 2400.99 237.504 2383.14 237.504C2369.41 237.504 2358.31 242.639 2349.84 252.91C2341.37 263.181 2337.14 275.117 2337.14 288.719C2337.14 303.708 2341.83 316.616 2351.21 327.442C2360.37 338.546 2377.88 351.176 2403.74 365.333C2442.65 386.707 2466.45 407.526 2475.15 427.79C2483.85 448.331 2488.19 468.04 2488.19 486.916C2488.19 516.618 2480.07 540.768 2463.82 559.366C2447.8 577.964 2427.54 587.263 2403.05 587.263C2377.19 587.263 2354.19 574.356 2334.05 548.54C2327.87 556.868 2322.83 568.804 2318.94 584.349H2305.55Z"/>
<path d="M2701.13 232.507H2814.42V251.661C2793.6 252.216 2765.67 271.092 2730.66 308.289C2719.44 319.947 2702.05 337.019 2678.47 359.503L2778.72 501.905C2793.83 523.28 2805.73 537.298 2814.42 543.96C2823.12 550.344 2832.05 553.814 2841.2 554.369V573.523H2701.13V554.369C2724.48 553.814 2736.15 547.707 2736.15 536.049C2736.15 530.775 2728.48 517.312 2713.15 495.66L2641.05 394.063L2626.29 407.387V456.52C2626.29 492.884 2626.63 515.785 2627.32 525.223C2628.23 534.383 2631.55 541.6 2637.28 546.875C2643 551.871 2652.95 554.369 2667.14 554.369V573.523H2524.67V554.369H2535.31C2551.79 554.369 2562.43 551.594 2567.24 546.042C2572.27 540.212 2575.14 533.412 2575.82 525.639C2576.51 517.589 2576.85 494.549 2576.85 456.52V114.672C2576.85 81.639 2574.22 60.5424 2568.96 51.382C2563.92 42.2216 2551.56 37.6415 2531.88 37.6415V18.488C2545.38 18.488 2561.52 16.5449 2580.29 12.6586C2599.28 8.77243 2612.21 4.88622 2619.08 1H2626.29V384.486L2655.81 359.503C2703.65 318.421 2727.57 288.858 2727.57 270.814C2727.57 258.601 2718.75 252.216 2701.13 251.661V232.507Z"/>
<path d="M3151.3 511.066H3164C3161.94 558.533 3142.71 582.267 3106.32 582.267C3090.76 582.267 3078.4 577.27 3069.25 567.277C3060.32 557.284 3054.48 542.433 3051.74 522.724C3028.85 542.433 3007.91 557.284 2988.91 567.277C2970.14 577.27 2953.32 582.267 2938.44 582.267C2919.45 582.267 2903.08 575.605 2889.35 562.281C2875.62 548.956 2868.75 531.33 2868.75 509.4C2868.75 480.809 2880.19 455.826 2903.08 434.452C2926.2 413.078 2958.01 392.259 2998.52 371.995L3051.74 345.763V329.108C3051.74 305.513 3050.48 288.441 3047.96 277.893C3045.44 267.345 3038.92 257.907 3028.39 249.579C3017.86 241.251 3004.02 237.088 2986.85 237.088C2952.52 237.088 2933.41 250.967 2929.52 278.726C2925.85 307.04 2916.24 321.196 2900.68 321.196C2886.72 321.196 2879.74 313.146 2879.74 297.046C2879.74 281.224 2889.01 264.291 2907.54 246.248C2926.08 227.927 2954.92 218.767 2994.06 218.767C3023.13 218.767 3045.67 224.319 3061.69 235.422C3077.71 246.526 3088.24 259.156 3093.28 273.313C3098.54 287.47 3101.17 309.121 3101.17 338.268V476.09C3101.17 508.29 3102.55 528.97 3105.29 538.131C3108.04 547.291 3113.99 551.871 3123.15 551.871C3138.25 551.871 3147.64 538.269 3151.3 511.066ZM3051.74 365.333L3014.32 383.653C2955.27 412.8 2925.74 449.442 2925.74 493.578C2925.74 511.066 2929.52 525.223 2937.07 536.049C2944.62 546.597 2954.46 551.871 2966.59 551.871C2977.35 551.871 2989.83 547.569 3004.02 538.963C3018.21 530.358 3034.11 517.45 3051.74 500.24V365.333Z"/>
</mask>
<path d="M141.758 296.214L283.89 140.904C316.848 105.095 333.327 79.5571 333.327 64.2898C333.327 41.2501 316.848 29.1751 283.89 28.0647V8.91123H459.323V28.0647C444.904 28.3423 430.37 32.0897 415.722 39.307C401.303 46.5242 388.028 55.9622 375.898 67.6208C363.768 79.2795 341.223 103.846 308.265 141.32L223.467 236.255L397.87 449.858C437.694 498.991 464.358 528.693 477.862 538.963C491.366 549.234 508.875 554.369 530.389 554.369V573.523H288.697V554.369H297.966C324.058 554.369 340.308 551.732 346.716 546.458C353.125 541.184 356.329 534.661 356.329 526.888C356.329 515.23 339.736 489.275 306.549 449.025L175.06 288.302L141.758 323.695V426.541C141.758 470.955 142.674 500.101 144.505 513.981C146.336 527.582 150.913 537.714 158.237 544.376C165.79 551.038 180.095 554.369 201.152 554.369H210.078V573.523H1V554.369H15.4192C35.3313 554.369 49.0639 551.316 56.6167 545.209C64.3985 539.102 69.3193 529.664 71.3792 516.895C73.668 503.849 74.8123 473.73 74.8123 426.541V149.648C74.8123 103.013 73.5535 73.3114 71.0359 60.5424C68.7471 47.7734 64.0552 39.1682 56.9601 34.7268C49.8649 30.2854 33.2714 28.0647 7.17964 28.0647V8.91123H213.168V28.0647H204.585C181.697 28.0647 166.706 30.4242 159.611 35.1432C152.516 39.5846 147.709 48.051 145.192 60.5424C142.903 73.0338 141.758 102.736 141.758 149.648V296.214Z" fill="#E7E5E4"/>
<path d="M618.703 347.845C618.016 355.895 617.673 363.112 617.673 369.497C617.673 375.603 617.559 380.6 617.33 384.486C617.33 504.681 648.113 564.779 709.681 564.779C751.336 564.779 780.861 542.156 798.256 496.909H814.735C811.759 508.568 807.296 519.393 801.346 529.387C795.624 539.102 788.757 547.707 780.747 555.202C772.965 562.697 764.153 568.943 754.312 573.939C744.699 579.213 734.514 582.822 723.757 584.765C712.084 591.982 703.387 600.449 697.665 610.164C691.943 620.157 689.082 632.51 689.082 647.222C689.082 665.543 694.804 678.312 706.248 685.529C717.692 692.746 734.972 696.355 758.088 696.355C770.905 696.355 784.065 693.44 797.569 687.611L803.749 700.935C778.801 718.978 753.396 728 727.533 728C716.089 728 705.676 726.334 696.292 723.003C686.908 719.95 678.897 715.37 672.26 709.263C665.622 703.434 660.473 696.216 656.811 687.611C653.378 679.283 651.661 669.984 651.661 659.714C651.661 645.002 654.98 631.261 661.617 618.492C668.254 606.001 678.211 595.452 691.485 586.847C674.777 585.459 658.527 580.324 642.735 571.441C626.942 562.558 612.981 550.483 600.851 535.216C588.72 519.671 578.879 501.212 571.326 479.837C564.002 458.186 560.34 433.758 560.34 406.554C560.34 379.906 563.773 355.201 570.639 332.439C577.734 309.399 587.347 289.552 599.477 272.896C611.837 255.964 626.37 242.778 643.078 233.34C659.786 223.625 677.867 218.767 697.322 218.767C733.942 218.767 762.437 232.369 782.807 259.572C802.948 286.498 813.59 315.922 814.735 347.845H618.703ZM754.655 331.19C755.342 325.083 755.685 319.392 755.685 314.118C755.685 301.904 754.083 291.078 750.879 281.64C747.674 271.925 743.326 263.875 737.833 257.49C732.34 250.828 725.817 245.832 718.264 242.501C710.94 238.892 703.044 237.088 694.575 237.088C652.691 237.088 627.858 268.455 620.076 331.19H754.655Z" fill="#E7E5E4"/>
<path d="M1109.04 268.733V135.491C1109.04 99.127 1108.58 76.226 1107.66 66.7881C1106.98 57.3501 1103.77 50.1329 1098.05 45.1363C1092.33 40.1397 1082.14 37.6415 1067.5 37.6415H1060.29V18.488C1087.98 17.6552 1118.31 11.8259 1151.26 1H1158.47V459.435C1158.47 499.13 1159.05 523.28 1160.19 531.885C1161.33 540.49 1164.88 546.875 1170.83 551.038C1177.01 555.202 1188.34 557.284 1204.82 557.284V576.438C1171.63 577.27 1142.11 580.879 1116.25 587.263C1113.5 574.217 1112.13 553.675 1112.13 525.639C1095.19 546.181 1077.68 561.587 1059.6 571.857C1041.75 582.128 1023.21 587.263 1003.98 587.263C967.592 587.263 936.121 569.498 909.572 533.967C883.251 498.436 870.091 455.41 870.091 404.889C870.091 349.372 883.594 304.541 910.602 270.398C937.609 235.977 969.766 218.767 1007.07 218.767C1026.07 218.767 1044.04 222.931 1060.97 231.258C1077.91 239.586 1093.93 252.077 1109.04 268.733ZM1109.04 292.883C1093.93 277.06 1078.71 265.263 1063.38 257.49C1048.27 249.44 1033.05 245.415 1017.72 245.415C991.852 245.415 970.224 257.49 952.829 281.64C935.663 305.79 927.081 345.208 927.081 399.892C927.081 455.41 935.892 496.354 953.516 522.724C971.368 549.095 993.34 562.281 1019.43 562.281C1036.83 562.281 1052.96 557.284 1067.84 547.291C1082.72 537.298 1096.45 522.308 1109.04 502.322V292.883Z" fill="#E7E5E4"/>
<path d="M1233.4 573.523V560.615L1419.82 251.661H1317.51C1304.46 251.661 1295.54 252.771 1290.73 254.992C1286.15 256.935 1280.55 263.597 1273.91 274.978C1267.5 286.082 1260.98 303.431 1254.34 327.026H1241.64L1246.1 232.507H1481.61V247.497L1296.22 554.369H1373.13C1398.07 554.369 1414.78 552.704 1423.25 549.373C1431.72 546.042 1440.07 537.853 1448.31 524.806C1456.55 511.482 1464.79 491.496 1473.03 464.848H1486.76L1478.52 573.523H1233.4Z" fill="#E7E5E4"/>
<path d="M1566.49 44.7199C1566.49 32.7837 1569.93 22.513 1576.79 13.9078C1583.89 5.3026 1592.36 1 1602.2 1C1612.04 1 1620.39 5.3026 1627.26 13.9078C1634.13 22.513 1637.56 32.7837 1637.56 44.7199C1637.56 56.9338 1634.13 67.3433 1627.26 75.9485C1620.39 84.5536 1612.04 88.8562 1602.2 88.8562C1592.36 88.8562 1583.89 84.5536 1576.79 75.9485C1569.93 67.3433 1566.49 56.9338 1566.49 44.7199ZM1632.75 218.767V456.52C1632.75 492.884 1633.21 515.785 1634.13 525.223C1635.04 534.661 1638.36 541.878 1644.08 546.875C1649.81 551.871 1659.99 554.369 1674.64 554.369H1681.85V573.523H1530.45V554.369H1542.12C1558.37 554.369 1568.9 551.594 1573.7 546.042C1578.74 540.212 1581.6 533.412 1582.29 525.639C1583.2 517.589 1583.66 494.549 1583.66 456.52V353.258C1583.66 313.285 1582.06 288.858 1578.85 279.975C1575.88 271.092 1571.76 265.54 1566.49 263.32C1561.46 261.099 1552.53 259.989 1539.72 259.989H1530.45V240.835C1571.19 235.838 1602.77 228.482 1625.2 218.767H1632.75Z" fill="#E7E5E4"/>
<path d="M1979.58 347.845H1783.55C1782.64 364.222 1782.18 376.436 1782.18 384.486C1782.18 444.445 1789.85 489.553 1805.18 519.81C1820.74 549.789 1843.86 564.779 1874.53 564.779C1916.18 564.779 1945.71 542.156 1963.1 496.909H1979.58C1972.26 525.223 1957.73 547.43 1935.98 563.53C1914.24 579.352 1890.55 587.263 1864.92 587.263C1841.11 587.263 1818.57 580.046 1797.28 565.612C1776.23 550.9 1758.95 530.219 1745.44 503.571C1731.94 476.923 1725.19 444.584 1725.19 406.554C1725.19 352.703 1738.23 308.011 1764.33 272.48C1790.42 236.671 1823.03 218.767 1862.17 218.767C1899.02 218.767 1927.51 232.369 1947.65 259.572C1967.8 286.776 1978.44 316.2 1979.58 347.845ZM1919.5 331.19C1920.19 324.805 1920.53 319.115 1920.53 314.118C1920.53 289.69 1914.58 270.814 1902.68 257.49C1891.01 243.888 1876.59 237.088 1859.42 237.088C1817.77 237.088 1792.93 268.455 1784.92 331.19H1919.5Z" fill="#E7E5E4"/>
<path d="M2126.95 305.79C2134.73 281.085 2147.32 260.405 2164.71 243.75C2182.33 227.094 2199.5 218.767 2216.21 218.767C2231.31 218.767 2243.22 224.457 2251.91 235.838C2260.61 247.22 2264.96 258.878 2264.96 270.814C2264.96 278.864 2262.67 285.804 2258.09 291.633C2253.74 297.463 2248.37 300.377 2241.96 300.377C2230.51 300.377 2221.82 290.107 2215.86 269.565C2211.75 255.686 2205.57 248.746 2197.33 248.746C2187.48 248.746 2175.7 256.935 2161.96 273.313C2148.23 289.413 2139.42 306.207 2135.53 323.695C2131.64 341.183 2129.69 365.194 2129.69 395.729V456.52C2129.69 492.884 2130.04 515.785 2130.72 525.223C2131.64 534.661 2134.96 541.878 2140.68 546.875C2146.4 551.871 2156.59 554.369 2171.23 554.369H2180.85V573.523H2031.51V554.369H2038.72C2052.45 554.369 2062.17 552.149 2067.9 547.707C2073.85 542.988 2077.4 536.465 2078.54 528.137C2079.68 519.81 2080.26 495.937 2080.26 456.52V360.336C2080.26 323.695 2079.8 300.794 2078.88 291.633C2078.2 282.195 2074.99 274.978 2069.27 269.982C2063.55 264.708 2053.36 262.07 2038.72 262.07H2031.51V243.333C2053.02 240.28 2081.17 232.091 2115.96 218.767C2122.6 240.696 2126.26 269.704 2126.95 305.79Z" fill="#E7E5E4"/>
<path d="M2305.55 584.349V472.342H2318.94C2334.5 537.02 2362.31 569.359 2402.37 569.359C2419.76 569.359 2432.69 562.975 2441.16 550.206C2449.86 537.437 2454.21 523.418 2454.21 508.151C2454.21 490.386 2449.63 475.812 2440.47 464.431C2431.09 453.05 2412.89 439.31 2385.89 423.21C2357.51 406.277 2337.14 389.622 2324.78 373.244C2312.42 357.144 2306.24 337.296 2306.24 313.702C2306.24 291.217 2312.88 269.843 2326.15 249.579C2339.43 229.038 2358.08 218.767 2382.11 218.767C2406.6 218.767 2426.86 230.842 2442.88 254.992C2446.31 250.828 2450.77 240.696 2456.27 224.596H2468.97V329.94H2456.27C2451.69 304.68 2442.76 283.028 2429.49 264.985C2416.44 246.664 2400.99 237.504 2383.14 237.504C2369.41 237.504 2358.31 242.639 2349.84 252.91C2341.37 263.181 2337.14 275.117 2337.14 288.719C2337.14 303.708 2341.83 316.616 2351.21 327.442C2360.37 338.546 2377.88 351.176 2403.74 365.333C2442.65 386.707 2466.45 407.526 2475.15 427.79C2483.85 448.331 2488.19 468.04 2488.19 486.916C2488.19 516.618 2480.07 540.768 2463.82 559.366C2447.8 577.964 2427.54 587.263 2403.05 587.263C2377.19 587.263 2354.19 574.356 2334.05 548.54C2327.87 556.868 2322.83 568.804 2318.94 584.349H2305.55Z" fill="#E7E5E4"/>
<path d="M2701.13 232.507H2814.42V251.661C2793.6 252.216 2765.67 271.092 2730.66 308.289C2719.44 319.947 2702.05 337.019 2678.47 359.503L2778.72 501.905C2793.83 523.28 2805.73 537.298 2814.42 543.96C2823.12 550.344 2832.05 553.814 2841.2 554.369V573.523H2701.13V554.369C2724.48 553.814 2736.15 547.707 2736.15 536.049C2736.15 530.775 2728.48 517.312 2713.15 495.66L2641.05 394.063L2626.29 407.387V456.52C2626.29 492.884 2626.63 515.785 2627.32 525.223C2628.23 534.383 2631.55 541.6 2637.28 546.875C2643 551.871 2652.95 554.369 2667.14 554.369V573.523H2524.67V554.369H2535.31C2551.79 554.369 2562.43 551.594 2567.24 546.042C2572.27 540.212 2575.14 533.412 2575.82 525.639C2576.51 517.589 2576.85 494.549 2576.85 456.52V114.672C2576.85 81.639 2574.22 60.5424 2568.96 51.382C2563.92 42.2216 2551.56 37.6415 2531.88 37.6415V18.488C2545.38 18.488 2561.52 16.5449 2580.29 12.6586C2599.28 8.77243 2612.21 4.88622 2619.08 1H2626.29V384.486L2655.81 359.503C2703.65 318.421 2727.57 288.858 2727.57 270.814C2727.57 258.601 2718.75 252.216 2701.13 251.661V232.507Z" fill="#E7E5E4"/>
<path d="M3151.3 511.066H3164C3161.94 558.533 3142.71 582.267 3106.32 582.267C3090.76 582.267 3078.4 577.27 3069.25 567.277C3060.32 557.284 3054.48 542.433 3051.74 522.724C3028.85 542.433 3007.91 557.284 2988.91 567.277C2970.14 577.27 2953.32 582.267 2938.44 582.267C2919.45 582.267 2903.08 575.605 2889.35 562.281C2875.62 548.956 2868.75 531.33 2868.75 509.4C2868.75 480.809 2880.19 455.826 2903.08 434.452C2926.2 413.078 2958.01 392.259 2998.52 371.995L3051.74 345.763V329.108C3051.74 305.513 3050.48 288.441 3047.96 277.893C3045.44 267.345 3038.92 257.907 3028.39 249.579C3017.86 241.251 3004.02 237.088 2986.85 237.088C2952.52 237.088 2933.41 250.967 2929.52 278.726C2925.85 307.04 2916.24 321.196 2900.68 321.196C2886.72 321.196 2879.74 313.146 2879.74 297.046C2879.74 281.224 2889.01 264.291 2907.54 246.248C2926.08 227.927 2954.92 218.767 2994.06 218.767C3023.13 218.767 3045.67 224.319 3061.69 235.422C3077.71 246.526 3088.24 259.156 3093.28 273.313C3098.54 287.47 3101.17 309.121 3101.17 338.268V476.09C3101.17 508.29 3102.55 528.97 3105.29 538.131C3108.04 547.291 3113.99 551.871 3123.15 551.871C3138.25 551.871 3147.64 538.269 3151.3 511.066ZM3051.74 365.333L3014.32 383.653C2955.27 412.8 2925.74 449.442 2925.74 493.578C2925.74 511.066 2929.52 525.223 2937.07 536.049C2944.62 546.597 2954.46 551.871 2966.59 551.871C2977.35 551.871 2989.83 547.569 3004.02 538.963C3018.21 530.358 3034.11 517.45 3051.74 500.24V365.333Z" fill="#E7E5E4"/>
<path d="M141.758 296.214L283.89 140.904C316.848 105.095 333.327 79.5571 333.327 64.2898C333.327 41.2501 316.848 29.1751 283.89 28.0647V8.91123H459.323V28.0647C444.904 28.3423 430.37 32.0897 415.722 39.307C401.303 46.5242 388.028 55.9622 375.898 67.6208C363.768 79.2795 341.223 103.846 308.265 141.32L223.467 236.255L397.87 449.858C437.694 498.991 464.358 528.693 477.862 538.963C491.366 549.234 508.875 554.369 530.389 554.369V573.523H288.697V554.369H297.966C324.058 554.369 340.308 551.732 346.716 546.458C353.125 541.184 356.329 534.661 356.329 526.888C356.329 515.23 339.736 489.275 306.549 449.025L175.06 288.302L141.758 323.695V426.541C141.758 470.955 142.674 500.101 144.505 513.981C146.336 527.582 150.913 537.714 158.237 544.376C165.79 551.038 180.095 554.369 201.152 554.369H210.078V573.523H1V554.369H15.4192C35.3313 554.369 49.0639 551.316 56.6167 545.209C64.3985 539.102 69.3193 529.664 71.3792 516.895C73.668 503.849 74.8123 473.73 74.8123 426.541V149.648C74.8123 103.013 73.5535 73.3114 71.0359 60.5424C68.7471 47.7734 64.0552 39.1682 56.9601 34.7268C49.8649 30.2854 33.2714 28.0647 7.17964 28.0647V8.91123H213.168V28.0647H204.585C181.697 28.0647 166.706 30.4242 159.611 35.1432C152.516 39.5846 147.709 48.051 145.192 60.5424C142.903 73.0338 141.758 102.736 141.758 149.648V296.214Z" stroke="black" stroke-width="2" mask="url(#path-1-outside-1_63_98)"/>
<path d="M618.703 347.845C618.016 355.895 617.673 363.112 617.673 369.497C617.673 375.603 617.559 380.6 617.33 384.486C617.33 504.681 648.113 564.779 709.681 564.779C751.336 564.779 780.861 542.156 798.256 496.909H814.735C811.759 508.568 807.296 519.393 801.346 529.387C795.624 539.102 788.757 547.707 780.747 555.202C772.965 562.697 764.153 568.943 754.312 573.939C744.699 579.213 734.514 582.822 723.757 584.765C712.084 591.982 703.387 600.449 697.665 610.164C691.943 620.157 689.082 632.51 689.082 647.222C689.082 665.543 694.804 678.312 706.248 685.529C717.692 692.746 734.972 696.355 758.088 696.355C770.905 696.355 784.065 693.44 797.569 687.611L803.749 700.935C778.801 718.978 753.396 728 727.533 728C716.089 728 705.676 726.334 696.292 723.003C686.908 719.95 678.897 715.37 672.26 709.263C665.622 703.434 660.473 696.216 656.811 687.611C653.378 679.283 651.661 669.984 651.661 659.714C651.661 645.002 654.98 631.261 661.617 618.492C668.254 606.001 678.211 595.452 691.485 586.847C674.777 585.459 658.527 580.324 642.735 571.441C626.942 562.558 612.981 550.483 600.851 535.216C588.72 519.671 578.879 501.212 571.326 479.837C564.002 458.186 560.34 433.758 560.34 406.554C560.34 379.906 563.773 355.201 570.639 332.439C577.734 309.399 587.347 289.552 599.477 272.896C611.837 255.964 626.37 242.778 643.078 233.34C659.786 223.625 677.867 218.767 697.322 218.767C733.942 218.767 762.437 232.369 782.807 259.572C802.948 286.498 813.59 315.922 814.735 347.845H618.703ZM754.655 331.19C755.342 325.083 755.685 319.392 755.685 314.118C755.685 301.904 754.083 291.078 750.879 281.64C747.674 271.925 743.326 263.875 737.833 257.49C732.34 250.828 725.817 245.832 718.264 242.501C710.94 238.892 703.044 237.088 694.575 237.088C652.691 237.088 627.858 268.455 620.076 331.19H754.655Z" stroke="black" stroke-width="2" mask="url(#path-1-outside-1_63_98)"/>
<path d="M1109.04 268.733V135.491C1109.04 99.127 1108.58 76.226 1107.66 66.7881C1106.98 57.3501 1103.77 50.1329 1098.05 45.1363C1092.33 40.1397 1082.14 37.6415 1067.5 37.6415H1060.29V18.488C1087.98 17.6552 1118.31 11.8259 1151.26 1H1158.47V459.435C1158.47 499.13 1159.05 523.28 1160.19 531.885C1161.33 540.49 1164.88 546.875 1170.83 551.038C1177.01 555.202 1188.34 557.284 1204.82 557.284V576.438C1171.63 577.27 1142.11 580.879 1116.25 587.263C1113.5 574.217 1112.13 553.675 1112.13 525.639C1095.19 546.181 1077.68 561.587 1059.6 571.857C1041.75 582.128 1023.21 587.263 1003.98 587.263C967.592 587.263 936.121 569.498 909.572 533.967C883.251 498.436 870.091 455.41 870.091 404.889C870.091 349.372 883.594 304.541 910.602 270.398C937.609 235.977 969.766 218.767 1007.07 218.767C1026.07 218.767 1044.04 222.931 1060.97 231.258C1077.91 239.586 1093.93 252.077 1109.04 268.733ZM1109.04 292.883C1093.93 277.06 1078.71 265.263 1063.38 257.49C1048.27 249.44 1033.05 245.415 1017.72 245.415C991.852 245.415 970.224 257.49 952.829 281.64C935.663 305.79 927.081 345.208 927.081 399.892C927.081 455.41 935.892 496.354 953.516 522.724C971.368 549.095 993.34 562.281 1019.43 562.281C1036.83 562.281 1052.96 557.284 1067.84 547.291C1082.72 537.298 1096.45 522.308 1109.04 502.322V292.883Z" stroke="black" stroke-width="2" mask="url(#path-1-outside-1_63_98)"/>
<path d="M1233.4 573.523V560.615L1419.82 251.661H1317.51C1304.46 251.661 1295.54 252.771 1290.73 254.992C1286.15 256.935 1280.55 263.597 1273.91 274.978C1267.5 286.082 1260.98 303.431 1254.34 327.026H1241.64L1246.1 232.507H1481.61V247.497L1296.22 554.369H1373.13C1398.07 554.369 1414.78 552.704 1423.25 549.373C1431.72 546.042 1440.07 537.853 1448.31 524.806C1456.55 511.482 1464.79 491.496 1473.03 464.848H1486.76L1478.52 573.523H1233.4Z" stroke="black" stroke-width="2" mask="url(#path-1-outside-1_63_98)"/>
<path d="M1566.49 44.7199C1566.49 32.7837 1569.93 22.513 1576.79 13.9078C1583.89 5.3026 1592.36 1 1602.2 1C1612.04 1 1620.39 5.3026 1627.26 13.9078C1634.13 22.513 1637.56 32.7837 1637.56 44.7199C1637.56 56.9338 1634.13 67.3433 1627.26 75.9485C1620.39 84.5536 1612.04 88.8562 1602.2 88.8562C1592.36 88.8562 1583.89 84.5536 1576.79 75.9485C1569.93 67.3433 1566.49 56.9338 1566.49 44.7199ZM1632.75 218.767V456.52C1632.75 492.884 1633.21 515.785 1634.13 525.223C1635.04 534.661 1638.36 541.878 1644.08 546.875C1649.81 551.871 1659.99 554.369 1674.64 554.369H1681.85V573.523H1530.45V554.369H1542.12C1558.37 554.369 1568.9 551.594 1573.7 546.042C1578.74 540.212 1581.6 533.412 1582.29 525.639C1583.2 517.589 1583.66 494.549 1583.66 456.52V353.258C1583.66 313.285 1582.06 288.858 1578.85 279.975C1575.88 271.092 1571.76 265.54 1566.49 263.32C1561.46 261.099 1552.53 259.989 1539.72 259.989H1530.45V240.835C1571.19 235.838 1602.77 228.482 1625.2 218.767H1632.75Z" stroke="black" stroke-width="2" mask="url(#path-1-outside-1_63_98)"/>
<path d="M1979.58 347.845H1783.55C1782.64 364.222 1782.18 376.436 1782.18 384.486C1782.18 444.445 1789.85 489.553 1805.18 519.81C1820.74 549.789 1843.86 564.779 1874.53 564.779C1916.18 564.779 1945.71 542.156 1963.1 496.909H1979.58C1972.26 525.223 1957.73 547.43 1935.98 563.53C1914.24 579.352 1890.55 587.263 1864.92 587.263C1841.11 587.263 1818.57 580.046 1797.28 565.612C1776.23 550.9 1758.95 530.219 1745.44 503.571C1731.94 476.923 1725.19 444.584 1725.19 406.554C1725.19 352.703 1738.23 308.011 1764.33 272.48C1790.42 236.671 1823.03 218.767 1862.17 218.767C1899.02 218.767 1927.51 232.369 1947.65 259.572C1967.8 286.776 1978.44 316.2 1979.58 347.845ZM1919.5 331.19C1920.19 324.805 1920.53 319.115 1920.53 314.118C1920.53 289.69 1914.58 270.814 1902.68 257.49C1891.01 243.888 1876.59 237.088 1859.42 237.088C1817.77 237.088 1792.93 268.455 1784.92 331.19H1919.5Z" stroke="black" stroke-width="2" mask="url(#path-1-outside-1_63_98)"/>
<path d="M2126.95 305.79C2134.73 281.085 2147.32 260.405 2164.71 243.75C2182.33 227.094 2199.5 218.767 2216.21 218.767C2231.31 218.767 2243.22 224.457 2251.91 235.838C2260.61 247.22 2264.96 258.878 2264.96 270.814C2264.96 278.864 2262.67 285.804 2258.09 291.633C2253.74 297.463 2248.37 300.377 2241.96 300.377C2230.51 300.377 2221.82 290.107 2215.86 269.565C2211.75 255.686 2205.57 248.746 2197.33 248.746C2187.48 248.746 2175.7 256.935 2161.96 273.313C2148.23 289.413 2139.42 306.207 2135.53 323.695C2131.64 341.183 2129.69 365.194 2129.69 395.729V456.52C2129.69 492.884 2130.04 515.785 2130.72 525.223C2131.64 534.661 2134.96 541.878 2140.68 546.875C2146.4 551.871 2156.59 554.369 2171.23 554.369H2180.85V573.523H2031.51V554.369H2038.72C2052.45 554.369 2062.17 552.149 2067.9 547.707C2073.85 542.988 2077.4 536.465 2078.54 528.137C2079.68 519.81 2080.26 495.937 2080.26 456.52V360.336C2080.26 323.695 2079.8 300.794 2078.88 291.633C2078.2 282.195 2074.99 274.978 2069.27 269.982C2063.55 264.708 2053.36 262.07 2038.72 262.07H2031.51V243.333C2053.02 240.28 2081.17 232.091 2115.96 218.767C2122.6 240.696 2126.26 269.704 2126.95 305.79Z" stroke="black" stroke-width="2" mask="url(#path-1-outside-1_63_98)"/>
<path d="M2305.55 584.349V472.342H2318.94C2334.5 537.02 2362.31 569.359 2402.37 569.359C2419.76 569.359 2432.69 562.975 2441.16 550.206C2449.86 537.437 2454.21 523.418 2454.21 508.151C2454.21 490.386 2449.63 475.812 2440.47 464.431C2431.09 453.05 2412.89 439.31 2385.89 423.21C2357.51 406.277 2337.14 389.622 2324.78 373.244C2312.42 357.144 2306.24 337.296 2306.24 313.702C2306.24 291.217 2312.88 269.843 2326.15 249.579C2339.43 229.038 2358.08 218.767 2382.11 218.767C2406.6 218.767 2426.86 230.842 2442.88 254.992C2446.31 250.828 2450.77 240.696 2456.27 224.596H2468.97V329.94H2456.27C2451.69 304.68 2442.76 283.028 2429.49 264.985C2416.44 246.664 2400.99 237.504 2383.14 237.504C2369.41 237.504 2358.31 242.639 2349.84 252.91C2341.37 263.181 2337.14 275.117 2337.14 288.719C2337.14 303.708 2341.83 316.616 2351.21 327.442C2360.37 338.546 2377.88 351.176 2403.74 365.333C2442.65 386.707 2466.45 407.526 2475.15 427.79C2483.85 448.331 2488.19 468.04 2488.19 486.916C2488.19 516.618 2480.07 540.768 2463.82 559.366C2447.8 577.964 2427.54 587.263 2403.05 587.263C2377.19 587.263 2354.19 574.356 2334.05 548.54C2327.87 556.868 2322.83 568.804 2318.94 584.349H2305.55Z" stroke="black" stroke-width="2" mask="url(#path-1-outside-1_63_98)"/>
<path d="M2701.13 232.507H2814.42V251.661C2793.6 252.216 2765.67 271.092 2730.66 308.289C2719.44 319.947 2702.05 337.019 2678.47 359.503L2778.72 501.905C2793.83 523.28 2805.73 537.298 2814.42 543.96C2823.12 550.344 2832.05 553.814 2841.2 554.369V573.523H2701.13V554.369C2724.48 553.814 2736.15 547.707 2736.15 536.049C2736.15 530.775 2728.48 517.312 2713.15 495.66L2641.05 394.063L2626.29 407.387V456.52C2626.29 492.884 2626.63 515.785 2627.32 525.223C2628.23 534.383 2631.55 541.6 2637.28 546.875C2643 551.871 2652.95 554.369 2667.14 554.369V573.523H2524.67V554.369H2535.31C2551.79 554.369 2562.43 551.594 2567.24 546.042C2572.27 540.212 2575.14 533.412 2575.82 525.639C2576.51 517.589 2576.85 494.549 2576.85 456.52V114.672C2576.85 81.639 2574.22 60.5424 2568.96 51.382C2563.92 42.2216 2551.56 37.6415 2531.88 37.6415V18.488C2545.38 18.488 2561.52 16.5449 2580.29 12.6586C2599.28 8.77243 2612.21 4.88622 2619.08 1H2626.29V384.486L2655.81 359.503C2703.65 318.421 2727.57 288.858 2727.57 270.814C2727.57 258.601 2718.75 252.216 2701.13 251.661V232.507Z" stroke="black" stroke-width="2" mask="url(#path-1-outside-1_63_98)"/>
<path d="M3151.3 511.066H3164C3161.94 558.533 3142.71 582.267 3106.32 582.267C3090.76 582.267 3078.4 577.27 3069.25 567.277C3060.32 557.284 3054.48 542.433 3051.74 522.724C3028.85 542.433 3007.91 557.284 2988.91 567.277C2970.14 577.27 2953.32 582.267 2938.44 582.267C2919.45 582.267 2903.08 575.605 2889.35 562.281C2875.62 548.956 2868.75 531.33 2868.75 509.4C2868.75 480.809 2880.19 455.826 2903.08 434.452C2926.2 413.078 2958.01 392.259 2998.52 371.995L3051.74 345.763V329.108C3051.74 305.513 3050.48 288.441 3047.96 277.893C3045.44 267.345 3038.92 257.907 3028.39 249.579C3017.86 241.251 3004.02 237.088 2986.85 237.088C2952.52 237.088 2933.41 250.967 2929.52 278.726C2925.85 307.04 2916.24 321.196 2900.68 321.196C2886.72 321.196 2879.74 313.146 2879.74 297.046C2879.74 281.224 2889.01 264.291 2907.54 246.248C2926.08 227.927 2954.92 218.767 2994.06 218.767C3023.13 218.767 3045.67 224.319 3061.69 235.422C3077.71 246.526 3088.24 259.156 3093.28 273.313C3098.54 287.47 3101.17 309.121 3101.17 338.268V476.09C3101.17 508.29 3102.55 528.97 3105.29 538.131C3108.04 547.291 3113.99 551.871 3123.15 551.871C3138.25 551.871 3147.64 538.269 3151.3 511.066ZM3051.74 365.333L3014.32 383.653C2955.27 412.8 2925.74 449.442 2925.74 493.578C2925.74 511.066 2929.52 525.223 2937.07 536.049C2944.62 546.597 2954.46 551.871 2966.59 551.871C2977.35 551.871 2989.83 547.569 3004.02 538.963C3018.21 530.358 3034.11 517.45 3051.74 500.24V365.333Z" stroke="black" stroke-width="2" mask="url(#path-1-outside-1_63_98)"/>
</svg>
