<svg width="1002" height="252" viewBox="0 0 1002 252" fill="none" xmlns="http://www.w3.org/2000/svg">
<mask id="path-1-outside-1_63_114" maskUnits="userSpaceOnUse" x="0" y="0" width="1002" height="252" fill="black">
<rect fill="white" width="1002" height="252"/>
<path d="M493.497 47.6611C493.284 47.5851 493.059 47.6605 492.934 47.8504C491.98 49.298 490.279 51.4807 487.594 53.6586C487.477 53.7539 487.406 53.9032 487.399 54.0687C487.351 55.1861 487.086 56.4371 486.61 57.7869L486.417 58.3362L486.476 55.6607C486.481 55.4425 486.374 55.2311 486.2 55.1136C486.025 54.996 485.813 54.9921 485.65 55.1035L485.593 55.1417C480.057 58.8825 479.073 63.5609 478.979 66.0164C478.946 66.8686 479.004 67.6993 479.151 68.4857C479.208 68.7892 479.276 69.0762 479.354 69.3427L476.158 74.5386C476.003 74.7898 476.066 75.1457 476.299 75.3429C476.422 75.4466 476.569 75.4867 476.706 75.4667C476.829 75.4486 476.943 75.3818 477.023 75.2689L486.082 62.4998C486.137 62.4958 481.129 70.8928 481.187 70.8843C482.051 70.7572 483.164 70.136 484.405 69.0884C486.079 67.6754 487.862 65.6225 489.563 63.1516C489.703 62.9487 489.695 62.6573 489.543 62.4417C489.392 62.2261 489.135 62.1401 488.917 62.2325L487.679 62.7569L488.075 62.3702C489.178 61.291 490.259 60.5476 491.285 60.1603C491.396 60.1183 491.489 60.0346 491.547 59.923C493.456 56.2394 493.922 52.8085 493.978 50.5789C493.998 49.7686 493.969 48.9654 493.892 48.1917C493.868 47.9487 493.711 47.7371 493.497 47.6611Z"/>
<path d="M33.4497 136.272L99.8839 37.8196C102.661 34.3511 104.379 30.9271 105.036 27.5475C105.694 24.1679 105.438 21.233 104.269 18.7428C103.173 16.1637 101.236 14.4294 98.4587 13.54L91.1137 12.206C90.7482 12.1171 90.4924 12.0281 90.3463 11.9392C90.2001 11.7613 90.127 11.539 90.127 11.2721C90.127 11.0943 90.2001 10.9609 90.3463 10.8719C90.5655 10.6941 90.7482 10.6051 90.8944 10.6051H132.334C132.553 10.6051 132.699 10.6941 132.772 10.8719C132.918 10.9609 132.991 11.0943 132.991 11.2721C132.991 11.539 132.918 11.7613 132.772 11.9392C132.626 12.1171 132.443 12.2505 132.224 12.3394C130.031 12.7841 127.875 13.5845 125.756 14.7407C123.71 15.8079 121.48 17.3198 119.069 19.2764C116.73 21.1441 114.135 23.6343 111.285 26.7471C108.508 29.8598 105.292 33.7286 101.638 38.3533L34.1075 137.873L33.4497 136.272ZM60.8565 95.984L76.8621 76.3735L126.523 184.831C128.131 188.478 129.812 191.101 131.566 192.702C133.393 194.214 136.061 195.148 139.569 195.504C139.861 195.593 140.081 195.726 140.227 195.904C140.373 196.082 140.446 196.26 140.446 196.438C140.446 196.793 140.373 197.06 140.227 197.238C140.081 197.327 139.825 197.371 139.459 197.371H90.6752C90.4559 197.371 90.2732 197.327 90.127 197.238C89.9809 197.06 89.9078 196.793 89.9078 196.438C89.9078 196.171 89.9809 195.993 90.127 195.904C90.3463 195.726 90.6021 195.637 90.8944 195.637L101.09 194.036C102.405 193.858 103.209 193.191 103.502 192.035C103.867 190.879 103.465 188.967 102.296 186.299L60.8565 95.984ZM38.7118 190.434C38.7118 191.502 39.0041 192.302 39.5888 192.836C40.2466 193.369 41.2332 193.725 42.5488 193.903L52.7441 195.771C53.1826 195.771 53.475 195.859 53.6211 196.037C53.7673 196.126 53.8404 196.304 53.8404 196.571C53.8404 196.749 53.7673 196.927 53.6211 197.105C53.475 197.282 53.2557 197.371 52.9634 197.371H1.87702C1.58468 197.371 1.36542 197.282 1.21925 197.105C1.07308 196.927 1 196.749 1 196.571C1 196.126 1.36542 195.859 2.09627 195.771L12.2916 193.903C13.6071 193.725 14.5572 193.369 15.1419 192.836C15.7997 192.302 16.1286 191.502 16.1286 190.434V17.5422C16.1286 16.4749 15.7997 15.6745 15.1419 15.1409C14.5572 14.6073 13.6071 14.2515 12.2916 14.0736L2.09627 12.206C1.36542 12.1171 1 11.8502 1 11.4056C1 11.1387 1.07308 10.9609 1.21925 10.8719C1.36542 10.6941 1.58468 10.6051 1.87702 10.6051H52.9634C53.2557 10.6051 53.475 10.6941 53.6211 10.8719C53.7673 10.9609 53.8404 11.1387 53.8404 11.4056C53.8404 11.8502 53.475 12.1171 52.7441 12.206L42.5488 14.0736C41.2332 14.2515 40.2466 14.6073 39.5888 15.1409C39.0041 15.6745 38.7118 16.4749 38.7118 17.5422V190.434Z"/>
<path d="M165.873 129.335V127.334H214.328C215.424 127.334 215.972 126.578 215.972 125.066C215.972 110.303 214.036 99.1857 210.162 91.7151C206.289 84.2444 201.392 80.5091 195.472 80.5091C190.283 80.5091 185.861 82.4657 182.207 86.3789C178.553 90.2031 175.739 95.8506 173.766 103.321C171.793 110.792 170.806 119.863 170.806 130.536C170.806 148.857 174.022 162.775 180.453 172.291C186.958 181.808 195.326 186.566 205.558 186.566C212.866 186.566 219.115 183.986 224.304 178.828C229.566 173.67 232.709 166.644 233.732 157.75C233.805 157.128 233.951 156.816 234.171 156.816C234.39 156.816 234.572 156.905 234.719 157.083C234.865 157.172 234.901 157.483 234.828 158.017C234.097 166.288 231.905 173.625 228.251 180.029C224.596 186.343 219.882 191.324 214.109 194.97C208.335 198.528 204.096 203.197 201.392 208.978C198.761 214.847 197.445 221.384 197.445 228.588C197.445 234.814 198.505 239.483 200.625 242.596C202.817 245.797 205.814 247.398 209.614 247.398C212.099 247.398 214.401 246.553 216.52 244.863C218.713 243.174 220.321 241.173 221.344 238.86C221.563 238.416 221.746 238.104 221.892 237.926C222.111 237.837 222.331 237.882 222.55 238.06C222.769 238.149 222.879 238.327 222.879 238.593C222.952 238.949 222.879 239.349 222.66 239.794C221.49 242.729 219.371 245.308 216.301 247.531C213.305 249.844 209.504 251 204.9 251C198.03 251 192.658 249.221 188.785 245.664C184.984 242.106 183.084 237.081 183.084 230.589C183.084 224.453 185.021 218.627 188.894 213.113C192.768 207.599 199.09 202.218 207.86 196.971L208.956 197.638C206.106 198.528 203.584 199.15 201.392 199.506C199.199 199.862 197.336 200.04 195.801 200.04C187.25 200.04 179.722 197.683 173.218 192.969C166.786 188.255 161.78 181.541 158.199 172.825C154.618 164.109 152.827 153.882 152.827 142.142C152.827 129.869 154.691 118.974 158.418 109.458C162.145 99.8527 167.371 92.3376 174.095 86.9125C180.819 81.3984 188.712 78.6414 197.774 78.6414C205.448 78.6414 212.099 80.7314 217.726 84.9114C223.354 89.0914 227.702 94.8278 230.772 102.121C233.915 109.413 235.486 117.729 235.486 127.067C235.486 127.69 235.303 128.223 234.938 128.668C234.572 129.113 234.061 129.335 233.403 129.335H165.873Z"/>
<path d="M324.178 13.6734C324.178 13.2287 324.068 12.873 323.849 12.6062C323.703 12.3394 323.374 12.206 322.862 12.206H314.312C314.092 12.206 313.91 12.1171 313.763 11.9392C313.617 11.7613 313.544 11.5834 313.544 11.4056C313.544 11.1387 313.617 10.9609 313.763 10.8719C313.91 10.6941 314.129 10.5607 314.421 10.4717L340.732 1.53363C341.316 1.26682 341.718 1.13341 341.938 1.13341C342.157 1.04447 342.376 1 342.595 1C342.961 1 343.217 1.17788 343.363 1.53363C343.509 1.80044 343.582 2.11171 343.582 2.46745V190.568C343.582 191.635 343.801 192.48 344.24 193.102C344.678 193.725 345.336 194.17 346.213 194.437L353.12 195.637C353.558 195.726 353.85 195.859 353.997 196.037C354.143 196.126 354.216 196.304 354.216 196.571C354.216 196.838 354.143 197.06 353.997 197.238C353.85 197.327 353.631 197.371 353.339 197.371H327.248C326.224 197.371 325.457 197.016 324.945 196.304C324.434 195.593 324.178 194.481 324.178 192.969V13.6734ZM253.797 142.409C253.797 129.246 255.844 117.907 259.936 108.391C264.029 98.8744 269.437 91.5817 276.161 86.5123C282.958 81.4429 290.413 78.9082 298.525 78.9082C305.907 78.9082 312.119 80.8204 317.162 84.6446C322.205 88.4689 326.297 93.5827 329.44 99.9861L327.686 100.92C325.274 95.228 321.912 90.6923 317.6 87.3127C313.361 83.8442 308.319 82.1099 302.472 82.1099C297.137 82.1099 292.276 84.1555 287.891 88.2465C283.506 92.3376 279.998 98.6521 277.367 107.19C274.809 115.728 273.53 126.667 273.53 140.007C273.53 152.014 274.663 162.064 276.929 170.157C279.194 178.161 282.337 184.164 286.357 188.167C290.376 192.169 295.017 194.17 300.279 194.17C304.153 194.17 308.282 192.88 312.667 190.301C317.125 187.633 321.401 183.231 325.494 177.094L326.48 178.428C320.706 186.521 315.262 192.169 310.146 195.37C305.103 198.483 299.585 200.04 293.592 200.04C285.991 200.04 279.194 197.727 273.201 193.102C267.208 188.389 262.458 181.719 258.95 173.092C255.515 164.376 253.797 154.148 253.797 142.409Z"/>
<path d="M443.843 84.5112L389.468 196.304L386.398 195.637H416.765C420.127 195.637 423.087 195.015 425.645 193.769C428.276 192.435 430.834 189.99 433.319 186.432C435.804 182.875 438.508 177.761 441.431 171.091L445.816 160.285C446.036 160.018 446.218 159.796 446.364 159.618C446.511 159.44 446.693 159.44 446.913 159.618C447.059 159.707 447.132 159.885 447.132 160.152C447.205 160.418 447.205 160.863 447.132 161.486L440.664 198.439C440.591 199.15 440.481 199.595 440.335 199.773C440.189 200.04 440.043 200.173 439.896 200.173C439.385 200.173 438.618 199.684 437.594 198.705C436.644 197.816 435.329 197.371 433.648 197.371H369.516C369.296 197.371 369.114 197.327 368.968 197.238C368.894 197.06 368.858 196.882 368.858 196.704C368.858 196.438 368.894 196.171 368.968 195.904C369.041 195.637 369.223 195.192 369.516 194.57L424.329 82.3767L427.728 83.3106H395.607C393.049 83.3106 390.674 84.0221 388.481 85.445C386.362 86.7791 384.242 89.047 382.123 92.2487C380.076 95.4504 377.994 99.8972 375.874 105.589L371.599 116.128C371.452 116.573 371.27 116.929 371.05 117.195C370.831 117.373 370.575 117.418 370.283 117.329C370.064 117.24 369.918 117.062 369.845 116.795C369.772 116.439 369.772 115.95 369.845 115.328L375.545 81.5763C375.691 80.7759 375.838 80.2423 375.984 79.9755C376.13 79.6197 376.349 79.4418 376.641 79.4418C377.153 79.4418 377.847 79.7976 378.724 80.5091C379.675 81.2206 380.953 81.5763 382.561 81.5763H443.733C444.026 81.5763 444.208 81.6208 444.282 81.7097C444.428 81.7987 444.501 81.9765 444.501 82.2433C444.501 82.5102 444.464 82.8214 444.391 83.1772C444.318 83.444 444.135 83.8887 443.843 84.5112Z"/>
<path d="M493.746 80.7759V190.568C493.746 191.635 493.965 192.48 494.404 193.102C494.842 193.725 495.5 194.17 496.377 194.437L503.283 195.637C503.722 195.726 504.014 195.859 504.16 196.037C504.307 196.126 504.38 196.304 504.38 196.571C504.38 196.838 504.307 197.06 504.16 197.238C504.014 197.327 503.795 197.371 503.503 197.371H464.146C464 197.371 463.854 197.327 463.708 197.238C463.562 197.06 463.489 196.838 463.489 196.571C463.489 196.482 463.562 196.349 463.708 196.171C463.854 195.993 464.073 195.859 464.366 195.771L471.711 194.437C472.661 194.17 473.319 193.725 473.684 193.102C474.122 192.48 474.342 191.679 474.342 190.701V92.1153C474.342 91.6706 474.232 91.3148 474.013 91.048C473.867 90.7812 473.538 90.6478 473.026 90.6478H464.475C464.256 90.6478 464.073 90.5589 463.927 90.381C463.781 90.2031 463.708 90.0253 463.708 89.8474C463.708 89.4916 463.781 89.2693 463.927 89.1804C464.073 89.0025 464.293 88.8691 464.585 88.7802L490.895 79.8421C491.48 79.6642 491.882 79.5753 492.101 79.5753C492.321 79.4863 492.54 79.4418 492.759 79.4418C493.125 79.4418 493.38 79.5752 493.527 79.8421C493.673 80.1089 493.746 80.4201 493.746 80.7759Z"/>
<path d="M603.089 127.067C603.089 127.69 602.906 128.223 602.541 128.668C602.175 129.113 601.664 129.335 601.006 129.335H533.366V127.334H581.931C583.027 127.334 583.575 126.578 583.575 125.066C583.575 110.303 581.638 99.1857 577.765 91.7151C573.891 84.2444 568.995 80.5091 563.075 80.5091C557.886 80.5091 553.464 82.4657 549.81 86.3789C546.156 90.2031 543.342 95.8506 541.369 103.321C539.395 110.792 538.409 119.863 538.409 130.536C538.409 148.857 541.624 162.775 548.056 172.291C554.56 181.808 562.929 186.566 573.161 186.566C580.469 186.566 586.718 183.986 591.907 178.828C597.169 173.67 600.312 166.644 601.335 157.75C601.335 157.395 601.371 157.172 601.444 157.083C601.591 156.905 601.7 156.816 601.773 156.816C601.992 156.816 602.175 156.905 602.321 157.083C602.468 157.172 602.504 157.483 602.431 158.017C601.846 166.021 599.763 173.225 596.182 179.629C592.674 185.943 588.07 190.924 582.369 194.57C576.742 198.216 570.42 200.04 563.404 200.04C554.853 200.04 547.325 197.683 540.82 192.969C534.389 188.255 529.383 181.541 525.802 172.825C522.22 164.109 520.43 153.882 520.43 142.142C520.43 129.869 522.293 118.974 526.021 109.458C529.748 99.8527 534.974 92.3376 541.697 86.9125C548.421 81.3984 556.314 78.6414 565.377 78.6414C573.051 78.6414 579.702 80.7314 585.329 84.9114C590.957 89.0914 595.305 94.8278 598.375 102.121C601.517 109.413 603.089 117.729 603.089 127.067Z"/>
<path d="M649.245 133.471C649.245 121.464 650.597 111.414 653.301 103.321C656.079 95.228 659.587 89.1359 663.826 85.0448C668.138 80.9538 672.559 78.9082 677.091 78.9082C682.28 78.9082 686.263 80.8204 689.04 84.6446C691.89 88.3799 693.315 93.5382 693.315 100.12C693.315 105.189 692.329 109.013 690.355 111.592C688.455 114.171 686.044 115.461 683.12 115.461C680.343 115.461 678.223 114.527 676.762 112.66C675.373 110.703 674.606 107.768 674.46 103.855V100.12C674.386 97.0068 673.838 94.6944 672.815 93.1825C671.792 91.6706 670.074 90.9146 667.663 90.9146C664.812 90.9146 662.072 92.5155 659.441 95.7172C656.81 98.9189 654.617 103.721 652.863 110.125C651.182 116.528 650.342 124.488 650.342 134.004L649.245 133.471ZM650.342 81.4429V190.034C650.342 191.012 650.561 191.857 650.999 192.569C651.511 193.191 652.205 193.636 653.082 193.903L663.935 195.771C664.301 195.859 664.557 195.948 664.703 196.037C664.849 196.126 664.922 196.304 664.922 196.571C664.922 196.838 664.849 197.06 664.703 197.238C664.557 197.327 664.301 197.371 663.935 197.371H621.071C620.779 197.371 620.523 197.282 620.304 197.105C620.158 196.927 620.084 196.749 620.084 196.571C620.084 196.304 620.194 196.082 620.413 195.904C620.633 195.726 620.961 195.593 621.4 195.504L628.306 194.437C629.257 194.17 629.914 193.769 630.28 193.236C630.718 192.613 630.938 191.902 630.938 191.101V91.7151C630.938 91.2704 630.828 90.9146 630.609 90.6478C630.462 90.2921 630.17 90.1142 629.732 90.1142H620.961C620.742 90.1142 620.559 90.0253 620.413 89.8474C620.267 89.6695 620.194 89.4917 620.194 89.3138C620.194 89.047 620.267 88.8246 620.413 88.6468C620.559 88.4689 620.815 88.3355 621.181 88.2465L647.491 80.3757C648.003 80.1978 648.368 80.1089 648.588 80.1089C648.88 80.0199 649.136 79.9755 649.355 79.9755C649.72 79.9755 649.976 80.1533 650.122 80.5091C650.268 80.7759 650.342 81.0872 650.342 81.4429Z"/>
<path d="M747.329 197.772C752.957 197.772 757.415 195.948 760.704 192.302C764.066 188.656 765.747 183.898 765.747 178.028C765.747 174.026 764.979 170.468 763.444 167.355C761.983 164.154 759.461 161.263 755.88 158.684C752.372 156.016 747.548 153.481 741.409 151.08C733.37 147.878 726.975 144.41 722.225 140.675C717.547 136.85 714.222 132.537 712.248 127.734C710.275 122.932 709.288 117.462 709.288 111.326C709.288 100.831 712.212 92.7378 718.059 87.0459C723.905 81.265 731.653 78.3746 741.3 78.3746C745.685 78.3746 749.302 78.9082 752.153 79.9755C755.003 81.0427 757.159 82.1099 758.621 83.1772C760.156 84.1555 761.142 84.6446 761.581 84.6446C762.165 84.6446 763.225 84.1555 764.76 83.1772C766.295 82.1099 767.793 81.0427 769.255 79.9755C770.716 78.9082 771.63 78.3746 771.995 78.3746C772.215 78.3746 772.434 78.4635 772.653 78.6414C772.872 78.7304 773.019 79.0416 773.092 79.5753L779.56 116.128C779.706 116.662 779.742 117.151 779.669 117.596C779.596 117.951 779.45 118.218 779.231 118.396C779.011 118.485 778.792 118.485 778.573 118.396C778.427 118.218 778.244 117.996 778.025 117.729C774.517 108.48 770.936 101.142 767.281 95.7172C763.627 90.2031 759.717 86.2455 755.551 83.8442C751.458 81.4429 746.964 80.2423 742.067 80.2423C735.928 80.2423 731.104 82.1544 727.596 85.9787C724.088 89.714 722.334 94.7389 722.334 101.053C722.334 104.967 723.065 108.524 724.527 111.726C725.988 114.927 728.583 117.862 732.31 120.53C736.111 123.11 741.446 125.6 748.316 128.001C755.697 130.669 761.617 133.871 766.075 137.606C770.607 141.253 773.896 145.522 775.942 150.413C778.061 155.305 779.121 160.774 779.121 166.822C779.121 173.492 777.806 179.317 775.175 184.298C772.543 189.189 768.926 193.014 764.321 195.771C759.717 198.528 754.492 199.906 748.645 199.906C744.698 199.906 741.263 199.15 738.34 197.638C735.416 196.215 733.078 194.792 731.324 193.369C729.57 191.857 728.473 191.101 728.035 191.101C727.669 191.101 726.902 191.813 725.733 193.236C724.563 194.57 723.321 195.904 722.005 197.238C720.763 198.572 719.886 199.239 719.374 199.239C719.155 199.239 718.899 199.106 718.607 198.839C718.314 198.572 718.095 198.038 717.949 197.238L712.577 165.354C712.504 164.554 712.468 163.976 712.468 163.62C712.541 163.175 712.724 162.864 713.016 162.686C713.162 162.508 713.308 162.508 713.454 162.686C713.674 162.864 713.82 163.086 713.893 163.353C719.155 176.071 724.673 185.009 730.447 190.168C736.22 195.237 741.848 197.772 747.329 197.772Z"/>
<path d="M799.616 197.371C799.47 197.371 799.324 197.327 799.178 197.238C799.032 197.06 798.959 196.838 798.959 196.571C798.959 196.393 799.068 196.215 799.287 196.037C799.507 195.771 799.872 195.593 800.384 195.504L807.181 194.437C808.131 194.17 808.788 193.725 809.154 193.102C809.592 192.48 809.812 191.679 809.812 190.701V13.6734C809.812 13.2287 809.702 12.873 809.483 12.6062C809.337 12.3394 809.008 12.206 808.496 12.206H799.945C799.726 12.206 799.543 12.1171 799.397 11.9392C799.251 11.7613 799.178 11.5834 799.178 11.4056C799.178 11.1387 799.251 10.9609 799.397 10.8719C799.543 10.6941 799.762 10.5607 800.055 10.4717L826.365 1.53363C826.95 1.26682 827.352 1.13341 827.571 1.13341C827.791 1.04447 828.01 1 828.229 1C828.594 1 828.85 1.17788 828.996 1.53363C829.143 1.80044 829.216 2.11171 829.216 2.46745V190.568C829.216 191.635 829.435 192.48 829.873 193.102C830.312 193.725 830.97 194.17 831.847 194.437L838.753 195.637C839.484 195.726 839.85 196.037 839.85 196.571C839.85 197.105 839.557 197.371 838.973 197.371H799.616ZM825.927 153.081L869.12 99.7193C872.117 95.984 873.322 92.6489 872.738 89.714C872.153 86.7791 870.034 84.9114 866.379 84.111L861.994 83.3106C861.629 83.2216 861.373 83.0882 861.227 82.9104C861.081 82.7325 861.008 82.5546 861.008 82.3767C861.008 82.1099 861.081 81.9321 861.227 81.8431C861.446 81.6653 861.702 81.5763 861.994 81.5763H896.527C896.965 81.5763 897.258 81.6653 897.404 81.8431C897.55 81.9321 897.623 82.1099 897.623 82.3767C897.623 82.6436 897.514 82.8659 897.294 83.0438C897.148 83.1327 896.783 83.2661 896.198 83.444C891.667 84.4223 887.245 86.2899 882.933 89.047C878.621 91.804 874.528 95.5838 870.655 100.386L826.913 154.549L825.927 153.081ZM856.403 116.795L890.168 187.633C891.411 190.301 892.726 192.169 894.115 193.236C895.577 194.303 897.44 195.104 899.706 195.637C900.218 195.815 900.51 195.993 900.583 196.171C900.729 196.349 900.802 196.526 900.802 196.704C900.802 196.882 900.729 197.06 900.583 197.238C900.51 197.327 900.327 197.371 900.035 197.371H858.705C858.486 197.371 858.303 197.327 858.157 197.238C858.011 197.06 857.938 196.838 857.938 196.571C857.938 196.393 858.011 196.215 858.157 196.037C858.377 195.859 858.705 195.726 859.144 195.637L864.187 194.837C865.941 194.57 867.074 193.814 867.585 192.569C868.097 191.235 867.841 189.545 866.818 187.499L842.59 134.138L856.403 116.795Z"/>
<path d="M970.852 185.098V184.164L969.976 185.098V104.789C969.976 96.8734 968.697 90.8257 966.139 86.6457C963.581 82.3767 959.744 80.2423 954.628 80.2423C948.927 80.2423 944.761 81.8876 942.13 85.1782C939.499 88.4689 938.184 91.8929 938.184 95.4504V104.655C938.184 108.302 937.16 111.326 935.114 113.727C933.141 116.039 930.656 117.195 927.659 117.195C925.394 117.195 923.494 116.306 921.959 114.527C920.497 112.66 919.766 109.947 919.766 106.39C919.766 101.943 921.155 97.5849 923.932 93.3159C926.782 89.047 930.948 85.534 936.43 82.777C941.984 80.0199 948.781 78.6414 956.82 78.6414C967.856 78.6414 976.042 81.6208 981.377 87.5795C986.785 93.4493 989.489 101.631 989.489 112.126V182.964C989.489 186.61 989.964 189.234 990.914 190.835C991.937 192.347 993.18 193.102 994.642 193.102C995.957 193.102 997.127 192.613 998.15 191.635C999.246 190.657 999.867 189.189 1000.01 187.233C1000.09 186.877 1000.16 186.655 1000.23 186.566C1000.38 186.477 1000.49 186.432 1000.56 186.432C1000.78 186.432 1000.89 186.477 1000.89 186.566C1000.96 186.655 1001 186.877 1001 187.233C1001 188.656 1000.49 190.345 999.465 192.302C998.442 194.259 996.798 195.948 994.532 197.371C992.266 198.883 989.27 199.639 985.543 199.639C980.573 199.639 976.882 198.305 974.47 195.637C972.058 192.969 970.852 189.456 970.852 185.098ZM914.504 171.758C914.504 162.686 917.61 155.26 923.822 149.479C930.035 143.698 939.499 140.808 952.216 140.808C957.405 140.808 961.68 141.386 965.042 142.542C968.404 143.698 971.51 145.121 974.361 146.811L973.703 147.745C970.853 146.144 967.856 144.855 964.713 143.876C961.644 142.898 958.209 142.409 954.408 142.409C947.831 142.409 942.824 144.721 939.389 149.346C935.954 153.97 934.237 160.241 934.237 168.156C934.237 175.893 935.845 181.941 939.061 186.299C942.349 190.657 946.661 192.836 951.997 192.836C955.651 192.836 959.269 191.857 962.85 189.901C966.431 187.944 969.427 185.098 971.839 181.363L972.826 182.163C969.61 187.855 965.225 192.213 959.671 195.237C954.116 198.261 948.123 199.773 941.692 199.773C933.579 199.773 927.002 197.194 921.959 192.035C916.989 186.788 914.504 180.029 914.504 171.758Z"/>
</mask>
<path d="M493.497 47.6611C493.284 47.5851 493.059 47.6605 492.934 47.8504C491.98 49.298 490.279 51.4807 487.594 53.6586C487.477 53.7539 487.406 53.9032 487.399 54.0687C487.351 55.1861 487.086 56.4371 486.61 57.7869L486.417 58.3362L486.476 55.6607C486.481 55.4425 486.374 55.2311 486.2 55.1136C486.025 54.996 485.813 54.9921 485.65 55.1035L485.593 55.1417C480.057 58.8825 479.073 63.5609 478.979 66.0164C478.946 66.8686 479.004 67.6993 479.151 68.4857C479.208 68.7892 479.276 69.0762 479.354 69.3427L476.158 74.5386C476.003 74.7898 476.066 75.1457 476.299 75.3429C476.422 75.4466 476.569 75.4867 476.706 75.4667C476.829 75.4486 476.943 75.3818 477.023 75.2689L486.082 62.4998C486.137 62.4958 481.129 70.8928 481.187 70.8843C482.051 70.7572 483.164 70.136 484.405 69.0884C486.079 67.6754 487.862 65.6225 489.563 63.1516C489.703 62.9487 489.695 62.6573 489.543 62.4417C489.392 62.2261 489.135 62.1401 488.917 62.2325L487.679 62.7569L488.075 62.3702C489.178 61.291 490.259 60.5476 491.285 60.1603C491.396 60.1183 491.489 60.0346 491.547 59.923C493.456 56.2394 493.922 52.8085 493.978 50.5789C493.998 49.7686 493.969 48.9654 493.892 48.1917C493.868 47.9487 493.711 47.7371 493.497 47.6611Z" fill="#E9AB6E"/>
<path d="M33.4497 136.272L99.8839 37.8196C102.661 34.3511 104.379 30.9271 105.036 27.5475C105.694 24.1679 105.438 21.233 104.269 18.7428C103.173 16.1637 101.236 14.4294 98.4587 13.54L91.1137 12.206C90.7482 12.1171 90.4924 12.0281 90.3463 11.9392C90.2001 11.7613 90.127 11.539 90.127 11.2721C90.127 11.0943 90.2001 10.9609 90.3463 10.8719C90.5655 10.6941 90.7482 10.6051 90.8944 10.6051H132.334C132.553 10.6051 132.699 10.6941 132.772 10.8719C132.918 10.9609 132.991 11.0943 132.991 11.2721C132.991 11.539 132.918 11.7613 132.772 11.9392C132.626 12.1171 132.443 12.2505 132.224 12.3394C130.031 12.7841 127.875 13.5845 125.756 14.7407C123.71 15.8079 121.48 17.3198 119.069 19.2764C116.73 21.1441 114.135 23.6343 111.285 26.7471C108.508 29.8598 105.292 33.7286 101.638 38.3533L34.1075 137.873L33.4497 136.272ZM60.8565 95.984L76.8621 76.3735L126.523 184.831C128.131 188.478 129.812 191.101 131.566 192.702C133.393 194.214 136.061 195.148 139.569 195.504C139.861 195.593 140.081 195.726 140.227 195.904C140.373 196.082 140.446 196.26 140.446 196.438C140.446 196.793 140.373 197.06 140.227 197.238C140.081 197.327 139.825 197.371 139.459 197.371H90.6752C90.4559 197.371 90.2732 197.327 90.127 197.238C89.9809 197.06 89.9078 196.793 89.9078 196.438C89.9078 196.171 89.9809 195.993 90.127 195.904C90.3463 195.726 90.6021 195.637 90.8944 195.637L101.09 194.036C102.405 193.858 103.209 193.191 103.502 192.035C103.867 190.879 103.465 188.967 102.296 186.299L60.8565 95.984ZM38.7118 190.434C38.7118 191.502 39.0041 192.302 39.5888 192.836C40.2466 193.369 41.2332 193.725 42.5488 193.903L52.7441 195.771C53.1826 195.771 53.475 195.859 53.6211 196.037C53.7673 196.126 53.8404 196.304 53.8404 196.571C53.8404 196.749 53.7673 196.927 53.6211 197.105C53.475 197.282 53.2557 197.371 52.9634 197.371H1.87702C1.58468 197.371 1.36542 197.282 1.21925 197.105C1.07308 196.927 1 196.749 1 196.571C1 196.126 1.36542 195.859 2.09627 195.771L12.2916 193.903C13.6071 193.725 14.5572 193.369 15.1419 192.836C15.7997 192.302 16.1286 191.502 16.1286 190.434V17.5422C16.1286 16.4749 15.7997 15.6745 15.1419 15.1409C14.5572 14.6073 13.6071 14.2515 12.2916 14.0736L2.09627 12.206C1.36542 12.1171 1 11.8502 1 11.4056C1 11.1387 1.07308 10.9609 1.21925 10.8719C1.36542 10.6941 1.58468 10.6051 1.87702 10.6051H52.9634C53.2557 10.6051 53.475 10.6941 53.6211 10.8719C53.7673 10.9609 53.8404 11.1387 53.8404 11.4056C53.8404 11.8502 53.475 12.1171 52.7441 12.206L42.5488 14.0736C41.2332 14.2515 40.2466 14.6073 39.5888 15.1409C39.0041 15.6745 38.7118 16.4749 38.7118 17.5422V190.434Z" fill="#E7E5E4"/>
<path d="M165.873 129.335V127.334H214.328C215.424 127.334 215.972 126.578 215.972 125.066C215.972 110.303 214.036 99.1857 210.162 91.7151C206.289 84.2444 201.392 80.5091 195.472 80.5091C190.283 80.5091 185.861 82.4657 182.207 86.3789C178.553 90.2031 175.739 95.8506 173.766 103.321C171.793 110.792 170.806 119.863 170.806 130.536C170.806 148.857 174.022 162.775 180.453 172.291C186.958 181.808 195.326 186.566 205.558 186.566C212.866 186.566 219.115 183.986 224.304 178.828C229.566 173.67 232.709 166.644 233.732 157.75C233.805 157.128 233.951 156.816 234.171 156.816C234.39 156.816 234.572 156.905 234.719 157.083C234.865 157.172 234.901 157.483 234.828 158.017C234.097 166.288 231.905 173.625 228.251 180.029C224.596 186.343 219.882 191.324 214.109 194.97C208.335 198.528 204.096 203.197 201.392 208.978C198.761 214.847 197.445 221.384 197.445 228.588C197.445 234.814 198.505 239.483 200.625 242.596C202.817 245.797 205.814 247.398 209.614 247.398C212.099 247.398 214.401 246.553 216.52 244.863C218.713 243.174 220.321 241.173 221.344 238.86C221.563 238.416 221.746 238.104 221.892 237.926C222.111 237.837 222.331 237.882 222.55 238.06C222.769 238.149 222.879 238.327 222.879 238.593C222.952 238.949 222.879 239.349 222.66 239.794C221.49 242.729 219.371 245.308 216.301 247.531C213.305 249.844 209.504 251 204.9 251C198.03 251 192.658 249.221 188.785 245.664C184.984 242.106 183.084 237.081 183.084 230.589C183.084 224.453 185.021 218.627 188.894 213.113C192.768 207.599 199.09 202.218 207.86 196.971L208.956 197.638C206.106 198.528 203.584 199.15 201.392 199.506C199.199 199.862 197.336 200.04 195.801 200.04C187.25 200.04 179.722 197.683 173.218 192.969C166.786 188.255 161.78 181.541 158.199 172.825C154.618 164.109 152.827 153.882 152.827 142.142C152.827 129.869 154.691 118.974 158.418 109.458C162.145 99.8527 167.371 92.3376 174.095 86.9125C180.819 81.3984 188.712 78.6414 197.774 78.6414C205.448 78.6414 212.099 80.7314 217.726 84.9114C223.354 89.0914 227.702 94.8278 230.772 102.121C233.915 109.413 235.486 117.729 235.486 127.067C235.486 127.69 235.303 128.223 234.938 128.668C234.572 129.113 234.061 129.335 233.403 129.335H165.873Z" fill="#E7E5E4"/>
<path d="M324.178 13.6734C324.178 13.2287 324.068 12.873 323.849 12.6062C323.703 12.3394 323.374 12.206 322.862 12.206H314.312C314.092 12.206 313.91 12.1171 313.763 11.9392C313.617 11.7613 313.544 11.5834 313.544 11.4056C313.544 11.1387 313.617 10.9609 313.763 10.8719C313.91 10.6941 314.129 10.5607 314.421 10.4717L340.732 1.53363C341.316 1.26682 341.718 1.13341 341.938 1.13341C342.157 1.04447 342.376 1 342.595 1C342.961 1 343.217 1.17788 343.363 1.53363C343.509 1.80044 343.582 2.11171 343.582 2.46745V190.568C343.582 191.635 343.801 192.48 344.24 193.102C344.678 193.725 345.336 194.17 346.213 194.437L353.12 195.637C353.558 195.726 353.85 195.859 353.997 196.037C354.143 196.126 354.216 196.304 354.216 196.571C354.216 196.838 354.143 197.06 353.997 197.238C353.85 197.327 353.631 197.371 353.339 197.371H327.248C326.224 197.371 325.457 197.016 324.945 196.304C324.434 195.593 324.178 194.481 324.178 192.969V13.6734ZM253.797 142.409C253.797 129.246 255.844 117.907 259.936 108.391C264.029 98.8744 269.437 91.5817 276.161 86.5123C282.958 81.4429 290.413 78.9082 298.525 78.9082C305.907 78.9082 312.119 80.8204 317.162 84.6446C322.205 88.4689 326.297 93.5827 329.44 99.9861L327.686 100.92C325.274 95.228 321.912 90.6923 317.6 87.3127C313.361 83.8442 308.319 82.1099 302.472 82.1099C297.137 82.1099 292.276 84.1555 287.891 88.2465C283.506 92.3376 279.998 98.6521 277.367 107.19C274.809 115.728 273.53 126.667 273.53 140.007C273.53 152.014 274.663 162.064 276.929 170.157C279.194 178.161 282.337 184.164 286.357 188.167C290.376 192.169 295.017 194.17 300.279 194.17C304.153 194.17 308.282 192.88 312.667 190.301C317.125 187.633 321.401 183.231 325.494 177.094L326.48 178.428C320.706 186.521 315.262 192.169 310.146 195.37C305.103 198.483 299.585 200.04 293.592 200.04C285.991 200.04 279.194 197.727 273.201 193.102C267.208 188.389 262.458 181.719 258.95 173.092C255.515 164.376 253.797 154.148 253.797 142.409Z" fill="#E7E5E4"/>
<path d="M443.843 84.5112L389.468 196.304L386.398 195.637H416.765C420.127 195.637 423.087 195.015 425.645 193.769C428.276 192.435 430.834 189.99 433.319 186.432C435.804 182.875 438.508 177.761 441.431 171.091L445.816 160.285C446.036 160.018 446.218 159.796 446.364 159.618C446.511 159.44 446.693 159.44 446.913 159.618C447.059 159.707 447.132 159.885 447.132 160.152C447.205 160.418 447.205 160.863 447.132 161.486L440.664 198.439C440.591 199.15 440.481 199.595 440.335 199.773C440.189 200.04 440.043 200.173 439.896 200.173C439.385 200.173 438.618 199.684 437.594 198.705C436.644 197.816 435.329 197.371 433.648 197.371H369.516C369.296 197.371 369.114 197.327 368.968 197.238C368.894 197.06 368.858 196.882 368.858 196.704C368.858 196.438 368.894 196.171 368.968 195.904C369.041 195.637 369.223 195.192 369.516 194.57L424.329 82.3767L427.728 83.3106H395.607C393.049 83.3106 390.674 84.0221 388.481 85.445C386.362 86.7791 384.242 89.047 382.123 92.2487C380.076 95.4504 377.994 99.8972 375.874 105.589L371.599 116.128C371.452 116.573 371.27 116.929 371.05 117.195C370.831 117.373 370.575 117.418 370.283 117.329C370.064 117.24 369.918 117.062 369.845 116.795C369.772 116.439 369.772 115.95 369.845 115.328L375.545 81.5763C375.691 80.7759 375.838 80.2423 375.984 79.9755C376.13 79.6197 376.349 79.4418 376.641 79.4418C377.153 79.4418 377.847 79.7976 378.724 80.5091C379.675 81.2206 380.953 81.5763 382.561 81.5763H443.733C444.026 81.5763 444.208 81.6208 444.282 81.7097C444.428 81.7987 444.501 81.9765 444.501 82.2433C444.501 82.5102 444.464 82.8214 444.391 83.1772C444.318 83.444 444.135 83.8887 443.843 84.5112Z" fill="#E7E5E4"/>
<path d="M493.746 80.7759V190.568C493.746 191.635 493.965 192.48 494.404 193.102C494.842 193.725 495.5 194.17 496.377 194.437L503.283 195.637C503.722 195.726 504.014 195.859 504.16 196.037C504.307 196.126 504.38 196.304 504.38 196.571C504.38 196.838 504.307 197.06 504.16 197.238C504.014 197.327 503.795 197.371 503.503 197.371H464.146C464 197.371 463.854 197.327 463.708 197.238C463.562 197.06 463.489 196.838 463.489 196.571C463.489 196.482 463.562 196.349 463.708 196.171C463.854 195.993 464.073 195.859 464.366 195.771L471.711 194.437C472.661 194.17 473.319 193.725 473.684 193.102C474.122 192.48 474.342 191.679 474.342 190.701V92.1153C474.342 91.6706 474.232 91.3148 474.013 91.048C473.867 90.7812 473.538 90.6478 473.026 90.6478H464.475C464.256 90.6478 464.073 90.5589 463.927 90.381C463.781 90.2031 463.708 90.0253 463.708 89.8474C463.708 89.4916 463.781 89.2693 463.927 89.1804C464.073 89.0025 464.293 88.8691 464.585 88.7802L490.895 79.8421C491.48 79.6642 491.882 79.5753 492.101 79.5753C492.321 79.4863 492.54 79.4418 492.759 79.4418C493.125 79.4418 493.38 79.5752 493.527 79.8421C493.673 80.1089 493.746 80.4201 493.746 80.7759Z" fill="#E9AB6E"/>
<path d="M603.089 127.067C603.089 127.69 602.906 128.223 602.541 128.668C602.175 129.113 601.664 129.335 601.006 129.335H533.366V127.334H581.931C583.027 127.334 583.575 126.578 583.575 125.066C583.575 110.303 581.638 99.1857 577.765 91.7151C573.891 84.2444 568.995 80.5091 563.075 80.5091C557.886 80.5091 553.464 82.4657 549.81 86.3789C546.156 90.2031 543.342 95.8506 541.369 103.321C539.395 110.792 538.409 119.863 538.409 130.536C538.409 148.857 541.624 162.775 548.056 172.291C554.56 181.808 562.929 186.566 573.161 186.566C580.469 186.566 586.718 183.986 591.907 178.828C597.169 173.67 600.312 166.644 601.335 157.75C601.335 157.395 601.371 157.172 601.444 157.083C601.591 156.905 601.7 156.816 601.773 156.816C601.992 156.816 602.175 156.905 602.321 157.083C602.468 157.172 602.504 157.483 602.431 158.017C601.846 166.021 599.763 173.225 596.182 179.629C592.674 185.943 588.07 190.924 582.369 194.57C576.742 198.216 570.42 200.04 563.404 200.04C554.853 200.04 547.325 197.683 540.82 192.969C534.389 188.255 529.383 181.541 525.802 172.825C522.22 164.109 520.43 153.882 520.43 142.142C520.43 129.869 522.293 118.974 526.021 109.458C529.748 99.8527 534.974 92.3376 541.697 86.9125C548.421 81.3984 556.314 78.6414 565.377 78.6414C573.051 78.6414 579.702 80.7314 585.329 84.9114C590.957 89.0914 595.305 94.8278 598.375 102.121C601.517 109.413 603.089 117.729 603.089 127.067Z" fill="#E7E5E4"/>
<path d="M649.245 133.471C649.245 121.464 650.597 111.414 653.301 103.321C656.079 95.228 659.587 89.1359 663.826 85.0448C668.138 80.9538 672.559 78.9082 677.091 78.9082C682.28 78.9082 686.263 80.8204 689.04 84.6446C691.89 88.3799 693.315 93.5382 693.315 100.12C693.315 105.189 692.329 109.013 690.355 111.592C688.455 114.171 686.044 115.461 683.12 115.461C680.343 115.461 678.223 114.527 676.762 112.66C675.373 110.703 674.606 107.768 674.46 103.855V100.12C674.386 97.0068 673.838 94.6944 672.815 93.1825C671.792 91.6706 670.074 90.9146 667.663 90.9146C664.812 90.9146 662.072 92.5155 659.441 95.7172C656.81 98.9189 654.617 103.721 652.863 110.125C651.182 116.528 650.342 124.488 650.342 134.004L649.245 133.471ZM650.342 81.4429V190.034C650.342 191.012 650.561 191.857 650.999 192.569C651.511 193.191 652.205 193.636 653.082 193.903L663.935 195.771C664.301 195.859 664.557 195.948 664.703 196.037C664.849 196.126 664.922 196.304 664.922 196.571C664.922 196.838 664.849 197.06 664.703 197.238C664.557 197.327 664.301 197.371 663.935 197.371H621.071C620.779 197.371 620.523 197.282 620.304 197.105C620.158 196.927 620.084 196.749 620.084 196.571C620.084 196.304 620.194 196.082 620.413 195.904C620.633 195.726 620.961 195.593 621.4 195.504L628.306 194.437C629.257 194.17 629.914 193.769 630.28 193.236C630.718 192.613 630.938 191.902 630.938 191.101V91.7151C630.938 91.2704 630.828 90.9146 630.609 90.6478C630.462 90.2921 630.17 90.1142 629.732 90.1142H620.961C620.742 90.1142 620.559 90.0253 620.413 89.8474C620.267 89.6695 620.194 89.4917 620.194 89.3138C620.194 89.047 620.267 88.8246 620.413 88.6468C620.559 88.4689 620.815 88.3355 621.181 88.2465L647.491 80.3757C648.003 80.1978 648.368 80.1089 648.588 80.1089C648.88 80.0199 649.136 79.9755 649.355 79.9755C649.72 79.9755 649.976 80.1533 650.122 80.5091C650.268 80.7759 650.342 81.0872 650.342 81.4429Z" fill="#E7E5E4"/>
<path d="M747.329 197.772C752.957 197.772 757.415 195.948 760.704 192.302C764.066 188.656 765.747 183.898 765.747 178.028C765.747 174.026 764.979 170.468 763.444 167.355C761.983 164.154 759.461 161.263 755.88 158.684C752.372 156.016 747.548 153.481 741.409 151.08C733.37 147.878 726.975 144.41 722.225 140.675C717.547 136.85 714.222 132.537 712.248 127.734C710.275 122.932 709.288 117.462 709.288 111.326C709.288 100.831 712.212 92.7378 718.059 87.0459C723.905 81.265 731.653 78.3746 741.3 78.3746C745.685 78.3746 749.302 78.9082 752.153 79.9755C755.003 81.0427 757.159 82.1099 758.621 83.1772C760.156 84.1555 761.142 84.6446 761.581 84.6446C762.165 84.6446 763.225 84.1555 764.76 83.1772C766.295 82.1099 767.793 81.0427 769.255 79.9755C770.716 78.9082 771.63 78.3746 771.995 78.3746C772.215 78.3746 772.434 78.4635 772.653 78.6414C772.872 78.7304 773.019 79.0416 773.092 79.5753L779.56 116.128C779.706 116.662 779.742 117.151 779.669 117.596C779.596 117.951 779.45 118.218 779.231 118.396C779.011 118.485 778.792 118.485 778.573 118.396C778.427 118.218 778.244 117.996 778.025 117.729C774.517 108.48 770.936 101.142 767.281 95.7172C763.627 90.2031 759.717 86.2455 755.551 83.8442C751.458 81.4429 746.964 80.2423 742.067 80.2423C735.928 80.2423 731.104 82.1544 727.596 85.9787C724.088 89.714 722.334 94.7389 722.334 101.053C722.334 104.967 723.065 108.524 724.527 111.726C725.988 114.927 728.583 117.862 732.31 120.53C736.111 123.11 741.446 125.6 748.316 128.001C755.697 130.669 761.617 133.871 766.075 137.606C770.607 141.253 773.896 145.522 775.942 150.413C778.061 155.305 779.121 160.774 779.121 166.822C779.121 173.492 777.806 179.317 775.175 184.298C772.543 189.189 768.926 193.014 764.321 195.771C759.717 198.528 754.492 199.906 748.645 199.906C744.698 199.906 741.263 199.15 738.34 197.638C735.416 196.215 733.078 194.792 731.324 193.369C729.57 191.857 728.473 191.101 728.035 191.101C727.669 191.101 726.902 191.813 725.733 193.236C724.563 194.57 723.321 195.904 722.005 197.238C720.763 198.572 719.886 199.239 719.374 199.239C719.155 199.239 718.899 199.106 718.607 198.839C718.314 198.572 718.095 198.038 717.949 197.238L712.577 165.354C712.504 164.554 712.468 163.976 712.468 163.62C712.541 163.175 712.724 162.864 713.016 162.686C713.162 162.508 713.308 162.508 713.454 162.686C713.674 162.864 713.82 163.086 713.893 163.353C719.155 176.071 724.673 185.009 730.447 190.168C736.22 195.237 741.848 197.772 747.329 197.772Z" fill="#E7E5E4"/>
<path d="M799.616 197.371C799.47 197.371 799.324 197.327 799.178 197.238C799.032 197.06 798.959 196.838 798.959 196.571C798.959 196.393 799.068 196.215 799.287 196.037C799.507 195.771 799.872 195.593 800.384 195.504L807.181 194.437C808.131 194.17 808.788 193.725 809.154 193.102C809.592 192.48 809.812 191.679 809.812 190.701V13.6734C809.812 13.2287 809.702 12.873 809.483 12.6062C809.337 12.3394 809.008 12.206 808.496 12.206H799.945C799.726 12.206 799.543 12.1171 799.397 11.9392C799.251 11.7613 799.178 11.5834 799.178 11.4056C799.178 11.1387 799.251 10.9609 799.397 10.8719C799.543 10.6941 799.762 10.5607 800.055 10.4717L826.365 1.53363C826.95 1.26682 827.352 1.13341 827.571 1.13341C827.791 1.04447 828.01 1 828.229 1C828.594 1 828.85 1.17788 828.996 1.53363C829.143 1.80044 829.216 2.11171 829.216 2.46745V190.568C829.216 191.635 829.435 192.48 829.873 193.102C830.312 193.725 830.97 194.17 831.847 194.437L838.753 195.637C839.484 195.726 839.85 196.037 839.85 196.571C839.85 197.105 839.557 197.371 838.973 197.371H799.616ZM825.927 153.081L869.12 99.7193C872.117 95.984 873.322 92.6489 872.738 89.714C872.153 86.7791 870.034 84.9114 866.379 84.111L861.994 83.3106C861.629 83.2216 861.373 83.0882 861.227 82.9104C861.081 82.7325 861.008 82.5546 861.008 82.3767C861.008 82.1099 861.081 81.9321 861.227 81.8431C861.446 81.6653 861.702 81.5763 861.994 81.5763H896.527C896.965 81.5763 897.258 81.6653 897.404 81.8431C897.55 81.9321 897.623 82.1099 897.623 82.3767C897.623 82.6436 897.514 82.8659 897.294 83.0438C897.148 83.1327 896.783 83.2661 896.198 83.444C891.667 84.4223 887.245 86.2899 882.933 89.047C878.621 91.804 874.528 95.5838 870.655 100.386L826.913 154.549L825.927 153.081ZM856.403 116.795L890.168 187.633C891.411 190.301 892.726 192.169 894.115 193.236C895.577 194.303 897.44 195.104 899.706 195.637C900.218 195.815 900.51 195.993 900.583 196.171C900.729 196.349 900.802 196.526 900.802 196.704C900.802 196.882 900.729 197.06 900.583 197.238C900.51 197.327 900.327 197.371 900.035 197.371H858.705C858.486 197.371 858.303 197.327 858.157 197.238C858.011 197.06 857.938 196.838 857.938 196.571C857.938 196.393 858.011 196.215 858.157 196.037C858.377 195.859 858.705 195.726 859.144 195.637L864.187 194.837C865.941 194.57 867.074 193.814 867.585 192.569C868.097 191.235 867.841 189.545 866.818 187.499L842.59 134.138L856.403 116.795Z" fill="#E7E5E4"/>
<path d="M970.852 185.098V184.164L969.976 185.098V104.789C969.976 96.8734 968.697 90.8257 966.139 86.6457C963.581 82.3767 959.744 80.2423 954.628 80.2423C948.927 80.2423 944.761 81.8876 942.13 85.1782C939.499 88.4689 938.184 91.8929 938.184 95.4504V104.655C938.184 108.302 937.16 111.326 935.114 113.727C933.141 116.039 930.656 117.195 927.659 117.195C925.394 117.195 923.494 116.306 921.959 114.527C920.497 112.66 919.766 109.947 919.766 106.39C919.766 101.943 921.155 97.5849 923.932 93.3159C926.782 89.047 930.948 85.534 936.43 82.777C941.984 80.0199 948.781 78.6414 956.82 78.6414C967.856 78.6414 976.042 81.6208 981.377 87.5795C986.785 93.4493 989.489 101.631 989.489 112.126V182.964C989.489 186.61 989.964 189.234 990.914 190.835C991.937 192.347 993.18 193.102 994.642 193.102C995.957 193.102 997.127 192.613 998.15 191.635C999.246 190.657 999.867 189.189 1000.01 187.233C1000.09 186.877 1000.16 186.655 1000.23 186.566C1000.38 186.477 1000.49 186.432 1000.56 186.432C1000.78 186.432 1000.89 186.477 1000.89 186.566C1000.96 186.655 1001 186.877 1001 187.233C1001 188.656 1000.49 190.345 999.465 192.302C998.442 194.259 996.798 195.948 994.532 197.371C992.266 198.883 989.27 199.639 985.543 199.639C980.573 199.639 976.882 198.305 974.47 195.637C972.058 192.969 970.852 189.456 970.852 185.098ZM914.504 171.758C914.504 162.686 917.61 155.26 923.822 149.479C930.035 143.698 939.499 140.808 952.216 140.808C957.405 140.808 961.68 141.386 965.042 142.542C968.404 143.698 971.51 145.121 974.361 146.811L973.703 147.745C970.853 146.144 967.856 144.855 964.713 143.876C961.644 142.898 958.209 142.409 954.408 142.409C947.831 142.409 942.824 144.721 939.389 149.346C935.954 153.97 934.237 160.241 934.237 168.156C934.237 175.893 935.845 181.941 939.061 186.299C942.349 190.657 946.661 192.836 951.997 192.836C955.651 192.836 959.269 191.857 962.85 189.901C966.431 187.944 969.427 185.098 971.839 181.363L972.826 182.163C969.61 187.855 965.225 192.213 959.671 195.237C954.116 198.261 948.123 199.773 941.692 199.773C933.579 199.773 927.002 197.194 921.959 192.035C916.989 186.788 914.504 180.029 914.504 171.758Z" fill="#E7E5E4"/>
<path d="M493.497 47.6611C493.284 47.5851 493.059 47.6605 492.934 47.8504C491.98 49.298 490.279 51.4807 487.594 53.6586C487.477 53.7539 487.406 53.9032 487.399 54.0687C487.351 55.1861 487.086 56.4371 486.61 57.7869L486.417 58.3362L486.476 55.6607C486.481 55.4425 486.374 55.2311 486.2 55.1136C486.025 54.996 485.813 54.9921 485.65 55.1035L485.593 55.1417C480.057 58.8825 479.073 63.5609 478.979 66.0164C478.946 66.8686 479.004 67.6993 479.151 68.4857C479.208 68.7892 479.276 69.0762 479.354 69.3427L476.158 74.5386C476.003 74.7898 476.066 75.1457 476.299 75.3429C476.422 75.4466 476.569 75.4867 476.706 75.4667C476.829 75.4486 476.943 75.3818 477.023 75.2689L486.082 62.4998C486.137 62.4958 481.129 70.8928 481.187 70.8843C482.051 70.7572 483.164 70.136 484.405 69.0884C486.079 67.6754 487.862 65.6225 489.563 63.1516C489.703 62.9487 489.695 62.6573 489.543 62.4417C489.392 62.2261 489.135 62.1401 488.917 62.2325L487.679 62.7569L488.075 62.3702C489.178 61.291 490.259 60.5476 491.285 60.1603C491.396 60.1183 491.489 60.0346 491.547 59.923C493.456 56.2394 493.922 52.8085 493.978 50.5789C493.998 49.7686 493.969 48.9654 493.892 48.1917C493.868 47.9487 493.711 47.7371 493.497 47.6611Z" stroke="#0B0B0B" stroke-width="2" mask="url(#path-1-outside-1_63_114)"/>
<path d="M33.4497 136.272L99.8839 37.8196C102.661 34.3511 104.379 30.9271 105.036 27.5475C105.694 24.1679 105.438 21.233 104.269 18.7428C103.173 16.1637 101.236 14.4294 98.4587 13.54L91.1137 12.206C90.7482 12.1171 90.4924 12.0281 90.3463 11.9392C90.2001 11.7613 90.127 11.539 90.127 11.2721C90.127 11.0943 90.2001 10.9609 90.3463 10.8719C90.5655 10.6941 90.7482 10.6051 90.8944 10.6051H132.334C132.553 10.6051 132.699 10.6941 132.772 10.8719C132.918 10.9609 132.991 11.0943 132.991 11.2721C132.991 11.539 132.918 11.7613 132.772 11.9392C132.626 12.1171 132.443 12.2505 132.224 12.3394C130.031 12.7841 127.875 13.5845 125.756 14.7407C123.71 15.8079 121.48 17.3198 119.069 19.2764C116.73 21.1441 114.135 23.6343 111.285 26.7471C108.508 29.8598 105.292 33.7286 101.638 38.3533L34.1075 137.873L33.4497 136.272ZM60.8565 95.984L76.8621 76.3735L126.523 184.831C128.131 188.478 129.812 191.101 131.566 192.702C133.393 194.214 136.061 195.148 139.569 195.504C139.861 195.593 140.081 195.726 140.227 195.904C140.373 196.082 140.446 196.26 140.446 196.438C140.446 196.793 140.373 197.06 140.227 197.238C140.081 197.327 139.825 197.371 139.459 197.371H90.6752C90.4559 197.371 90.2732 197.327 90.127 197.238C89.9809 197.06 89.9078 196.793 89.9078 196.438C89.9078 196.171 89.9809 195.993 90.127 195.904C90.3463 195.726 90.6021 195.637 90.8944 195.637L101.09 194.036C102.405 193.858 103.209 193.191 103.502 192.035C103.867 190.879 103.465 188.967 102.296 186.299L60.8565 95.984ZM38.7118 190.434C38.7118 191.502 39.0041 192.302 39.5888 192.836C40.2466 193.369 41.2332 193.725 42.5488 193.903L52.7441 195.771C53.1826 195.771 53.475 195.859 53.6211 196.037C53.7673 196.126 53.8404 196.304 53.8404 196.571C53.8404 196.749 53.7673 196.927 53.6211 197.105C53.475 197.282 53.2557 197.371 52.9634 197.371H1.87702C1.58468 197.371 1.36542 197.282 1.21925 197.105C1.07308 196.927 1 196.749 1 196.571C1 196.126 1.36542 195.859 2.09627 195.771L12.2916 193.903C13.6071 193.725 14.5572 193.369 15.1419 192.836C15.7997 192.302 16.1286 191.502 16.1286 190.434V17.5422C16.1286 16.4749 15.7997 15.6745 15.1419 15.1409C14.5572 14.6073 13.6071 14.2515 12.2916 14.0736L2.09627 12.206C1.36542 12.1171 1 11.8502 1 11.4056C1 11.1387 1.07308 10.9609 1.21925 10.8719C1.36542 10.6941 1.58468 10.6051 1.87702 10.6051H52.9634C53.2557 10.6051 53.475 10.6941 53.6211 10.8719C53.7673 10.9609 53.8404 11.1387 53.8404 11.4056C53.8404 11.8502 53.475 12.1171 52.7441 12.206L42.5488 14.0736C41.2332 14.2515 40.2466 14.6073 39.5888 15.1409C39.0041 15.6745 38.7118 16.4749 38.7118 17.5422V190.434Z" stroke="#0B0B0B" stroke-width="2" mask="url(#path-1-outside-1_63_114)"/>
<path d="M165.873 129.335V127.334H214.328C215.424 127.334 215.972 126.578 215.972 125.066C215.972 110.303 214.036 99.1857 210.162 91.7151C206.289 84.2444 201.392 80.5091 195.472 80.5091C190.283 80.5091 185.861 82.4657 182.207 86.3789C178.553 90.2031 175.739 95.8506 173.766 103.321C171.793 110.792 170.806 119.863 170.806 130.536C170.806 148.857 174.022 162.775 180.453 172.291C186.958 181.808 195.326 186.566 205.558 186.566C212.866 186.566 219.115 183.986 224.304 178.828C229.566 173.67 232.709 166.644 233.732 157.75C233.805 157.128 233.951 156.816 234.171 156.816C234.39 156.816 234.572 156.905 234.719 157.083C234.865 157.172 234.901 157.483 234.828 158.017C234.097 166.288 231.905 173.625 228.251 180.029C224.596 186.343 219.882 191.324 214.109 194.97C208.335 198.528 204.096 203.197 201.392 208.978C198.761 214.847 197.445 221.384 197.445 228.588C197.445 234.814 198.505 239.483 200.625 242.596C202.817 245.797 205.814 247.398 209.614 247.398C212.099 247.398 214.401 246.553 216.52 244.863C218.713 243.174 220.321 241.173 221.344 238.86C221.563 238.416 221.746 238.104 221.892 237.926C222.111 237.837 222.331 237.882 222.55 238.06C222.769 238.149 222.879 238.327 222.879 238.593C222.952 238.949 222.879 239.349 222.66 239.794C221.49 242.729 219.371 245.308 216.301 247.531C213.305 249.844 209.504 251 204.9 251C198.03 251 192.658 249.221 188.785 245.664C184.984 242.106 183.084 237.081 183.084 230.589C183.084 224.453 185.021 218.627 188.894 213.113C192.768 207.599 199.09 202.218 207.86 196.971L208.956 197.638C206.106 198.528 203.584 199.15 201.392 199.506C199.199 199.862 197.336 200.04 195.801 200.04C187.25 200.04 179.722 197.683 173.218 192.969C166.786 188.255 161.78 181.541 158.199 172.825C154.618 164.109 152.827 153.882 152.827 142.142C152.827 129.869 154.691 118.974 158.418 109.458C162.145 99.8527 167.371 92.3376 174.095 86.9125C180.819 81.3984 188.712 78.6414 197.774 78.6414C205.448 78.6414 212.099 80.7314 217.726 84.9114C223.354 89.0914 227.702 94.8278 230.772 102.121C233.915 109.413 235.486 117.729 235.486 127.067C235.486 127.69 235.303 128.223 234.938 128.668C234.572 129.113 234.061 129.335 233.403 129.335H165.873Z" stroke="#0B0B0B" stroke-width="2" mask="url(#path-1-outside-1_63_114)"/>
<path d="M324.178 13.6734C324.178 13.2287 324.068 12.873 323.849 12.6062C323.703 12.3394 323.374 12.206 322.862 12.206H314.312C314.092 12.206 313.91 12.1171 313.763 11.9392C313.617 11.7613 313.544 11.5834 313.544 11.4056C313.544 11.1387 313.617 10.9609 313.763 10.8719C313.91 10.6941 314.129 10.5607 314.421 10.4717L340.732 1.53363C341.316 1.26682 341.718 1.13341 341.938 1.13341C342.157 1.04447 342.376 1 342.595 1C342.961 1 343.217 1.17788 343.363 1.53363C343.509 1.80044 343.582 2.11171 343.582 2.46745V190.568C343.582 191.635 343.801 192.48 344.24 193.102C344.678 193.725 345.336 194.17 346.213 194.437L353.12 195.637C353.558 195.726 353.85 195.859 353.997 196.037C354.143 196.126 354.216 196.304 354.216 196.571C354.216 196.838 354.143 197.06 353.997 197.238C353.85 197.327 353.631 197.371 353.339 197.371H327.248C326.224 197.371 325.457 197.016 324.945 196.304C324.434 195.593 324.178 194.481 324.178 192.969V13.6734ZM253.797 142.409C253.797 129.246 255.844 117.907 259.936 108.391C264.029 98.8744 269.437 91.5817 276.161 86.5123C282.958 81.4429 290.413 78.9082 298.525 78.9082C305.907 78.9082 312.119 80.8204 317.162 84.6446C322.205 88.4689 326.297 93.5827 329.44 99.9861L327.686 100.92C325.274 95.228 321.912 90.6923 317.6 87.3127C313.361 83.8442 308.319 82.1099 302.472 82.1099C297.137 82.1099 292.276 84.1555 287.891 88.2465C283.506 92.3376 279.998 98.6521 277.367 107.19C274.809 115.728 273.53 126.667 273.53 140.007C273.53 152.014 274.663 162.064 276.929 170.157C279.194 178.161 282.337 184.164 286.357 188.167C290.376 192.169 295.017 194.17 300.279 194.17C304.153 194.17 308.282 192.88 312.667 190.301C317.125 187.633 321.401 183.231 325.494 177.094L326.48 178.428C320.706 186.521 315.262 192.169 310.146 195.37C305.103 198.483 299.585 200.04 293.592 200.04C285.991 200.04 279.194 197.727 273.201 193.102C267.208 188.389 262.458 181.719 258.95 173.092C255.515 164.376 253.797 154.148 253.797 142.409Z" stroke="#0B0B0B" stroke-width="2" mask="url(#path-1-outside-1_63_114)"/>
<path d="M443.843 84.5112L389.468 196.304L386.398 195.637H416.765C420.127 195.637 423.087 195.015 425.645 193.769C428.276 192.435 430.834 189.99 433.319 186.432C435.804 182.875 438.508 177.761 441.431 171.091L445.816 160.285C446.036 160.018 446.218 159.796 446.364 159.618C446.511 159.44 446.693 159.44 446.913 159.618C447.059 159.707 447.132 159.885 447.132 160.152C447.205 160.418 447.205 160.863 447.132 161.486L440.664 198.439C440.591 199.15 440.481 199.595 440.335 199.773C440.189 200.04 440.043 200.173 439.896 200.173C439.385 200.173 438.618 199.684 437.594 198.705C436.644 197.816 435.329 197.371 433.648 197.371H369.516C369.296 197.371 369.114 197.327 368.968 197.238C368.894 197.06 368.858 196.882 368.858 196.704C368.858 196.438 368.894 196.171 368.968 195.904C369.041 195.637 369.223 195.192 369.516 194.57L424.329 82.3767L427.728 83.3106H395.607C393.049 83.3106 390.674 84.0221 388.481 85.445C386.362 86.7791 384.242 89.047 382.123 92.2487C380.076 95.4504 377.994 99.8972 375.874 105.589L371.599 116.128C371.452 116.573 371.27 116.929 371.05 117.195C370.831 117.373 370.575 117.418 370.283 117.329C370.064 117.24 369.918 117.062 369.845 116.795C369.772 116.439 369.772 115.95 369.845 115.328L375.545 81.5763C375.691 80.7759 375.838 80.2423 375.984 79.9755C376.13 79.6197 376.349 79.4418 376.641 79.4418C377.153 79.4418 377.847 79.7976 378.724 80.5091C379.675 81.2206 380.953 81.5763 382.561 81.5763H443.733C444.026 81.5763 444.208 81.6208 444.282 81.7097C444.428 81.7987 444.501 81.9765 444.501 82.2433C444.501 82.5102 444.464 82.8214 444.391 83.1772C444.318 83.444 444.135 83.8887 443.843 84.5112Z" stroke="#0B0B0B" stroke-width="2" mask="url(#path-1-outside-1_63_114)"/>
<path d="M493.746 80.7759V190.568C493.746 191.635 493.965 192.48 494.404 193.102C494.842 193.725 495.5 194.17 496.377 194.437L503.283 195.637C503.722 195.726 504.014 195.859 504.16 196.037C504.307 196.126 504.38 196.304 504.38 196.571C504.38 196.838 504.307 197.06 504.16 197.238C504.014 197.327 503.795 197.371 503.503 197.371H464.146C464 197.371 463.854 197.327 463.708 197.238C463.562 197.06 463.489 196.838 463.489 196.571C463.489 196.482 463.562 196.349 463.708 196.171C463.854 195.993 464.073 195.859 464.366 195.771L471.711 194.437C472.661 194.17 473.319 193.725 473.684 193.102C474.122 192.48 474.342 191.679 474.342 190.701V92.1153C474.342 91.6706 474.232 91.3148 474.013 91.048C473.867 90.7812 473.538 90.6478 473.026 90.6478H464.475C464.256 90.6478 464.073 90.5589 463.927 90.381C463.781 90.2031 463.708 90.0253 463.708 89.8474C463.708 89.4916 463.781 89.2693 463.927 89.1804C464.073 89.0025 464.293 88.8691 464.585 88.7802L490.895 79.8421C491.48 79.6642 491.882 79.5753 492.101 79.5753C492.321 79.4863 492.54 79.4418 492.759 79.4418C493.125 79.4418 493.38 79.5752 493.527 79.8421C493.673 80.1089 493.746 80.4201 493.746 80.7759Z" stroke="#0B0B0B" stroke-width="2" mask="url(#path-1-outside-1_63_114)"/>
<path d="M603.089 127.067C603.089 127.69 602.906 128.223 602.541 128.668C602.175 129.113 601.664 129.335 601.006 129.335H533.366V127.334H581.931C583.027 127.334 583.575 126.578 583.575 125.066C583.575 110.303 581.638 99.1857 577.765 91.7151C573.891 84.2444 568.995 80.5091 563.075 80.5091C557.886 80.5091 553.464 82.4657 549.81 86.3789C546.156 90.2031 543.342 95.8506 541.369 103.321C539.395 110.792 538.409 119.863 538.409 130.536C538.409 148.857 541.624 162.775 548.056 172.291C554.56 181.808 562.929 186.566 573.161 186.566C580.469 186.566 586.718 183.986 591.907 178.828C597.169 173.67 600.312 166.644 601.335 157.75C601.335 157.395 601.371 157.172 601.444 157.083C601.591 156.905 601.7 156.816 601.773 156.816C601.992 156.816 602.175 156.905 602.321 157.083C602.468 157.172 602.504 157.483 602.431 158.017C601.846 166.021 599.763 173.225 596.182 179.629C592.674 185.943 588.07 190.924 582.369 194.57C576.742 198.216 570.42 200.04 563.404 200.04C554.853 200.04 547.325 197.683 540.82 192.969C534.389 188.255 529.383 181.541 525.802 172.825C522.22 164.109 520.43 153.882 520.43 142.142C520.43 129.869 522.293 118.974 526.021 109.458C529.748 99.8527 534.974 92.3376 541.697 86.9125C548.421 81.3984 556.314 78.6414 565.377 78.6414C573.051 78.6414 579.702 80.7314 585.329 84.9114C590.957 89.0914 595.305 94.8278 598.375 102.121C601.517 109.413 603.089 117.729 603.089 127.067Z" stroke="#0B0B0B" stroke-width="2" mask="url(#path-1-outside-1_63_114)"/>
<path d="M649.245 133.471C649.245 121.464 650.597 111.414 653.301 103.321C656.079 95.228 659.587 89.1359 663.826 85.0448C668.138 80.9538 672.559 78.9082 677.091 78.9082C682.28 78.9082 686.263 80.8204 689.04 84.6446C691.89 88.3799 693.315 93.5382 693.315 100.12C693.315 105.189 692.329 109.013 690.355 111.592C688.455 114.171 686.044 115.461 683.12 115.461C680.343 115.461 678.223 114.527 676.762 112.66C675.373 110.703 674.606 107.768 674.46 103.855V100.12C674.386 97.0068 673.838 94.6944 672.815 93.1825C671.792 91.6706 670.074 90.9146 667.663 90.9146C664.812 90.9146 662.072 92.5155 659.441 95.7172C656.81 98.9189 654.617 103.721 652.863 110.125C651.182 116.528 650.342 124.488 650.342 134.004L649.245 133.471ZM650.342 81.4429V190.034C650.342 191.012 650.561 191.857 650.999 192.569C651.511 193.191 652.205 193.636 653.082 193.903L663.935 195.771C664.301 195.859 664.557 195.948 664.703 196.037C664.849 196.126 664.922 196.304 664.922 196.571C664.922 196.838 664.849 197.06 664.703 197.238C664.557 197.327 664.301 197.371 663.935 197.371H621.071C620.779 197.371 620.523 197.282 620.304 197.105C620.158 196.927 620.084 196.749 620.084 196.571C620.084 196.304 620.194 196.082 620.413 195.904C620.633 195.726 620.961 195.593 621.4 195.504L628.306 194.437C629.257 194.17 629.914 193.769 630.28 193.236C630.718 192.613 630.938 191.902 630.938 191.101V91.7151C630.938 91.2704 630.828 90.9146 630.609 90.6478C630.462 90.2921 630.17 90.1142 629.732 90.1142H620.961C620.742 90.1142 620.559 90.0253 620.413 89.8474C620.267 89.6695 620.194 89.4917 620.194 89.3138C620.194 89.047 620.267 88.8246 620.413 88.6468C620.559 88.4689 620.815 88.3355 621.181 88.2465L647.491 80.3757C648.003 80.1978 648.368 80.1089 648.588 80.1089C648.88 80.0199 649.136 79.9755 649.355 79.9755C649.72 79.9755 649.976 80.1533 650.122 80.5091C650.268 80.7759 650.342 81.0872 650.342 81.4429Z" stroke="#0B0B0B" stroke-width="2" mask="url(#path-1-outside-1_63_114)"/>
<path d="M747.329 197.772C752.957 197.772 757.415 195.948 760.704 192.302C764.066 188.656 765.747 183.898 765.747 178.028C765.747 174.026 764.979 170.468 763.444 167.355C761.983 164.154 759.461 161.263 755.88 158.684C752.372 156.016 747.548 153.481 741.409 151.08C733.37 147.878 726.975 144.41 722.225 140.675C717.547 136.85 714.222 132.537 712.248 127.734C710.275 122.932 709.288 117.462 709.288 111.326C709.288 100.831 712.212 92.7378 718.059 87.0459C723.905 81.265 731.653 78.3746 741.3 78.3746C745.685 78.3746 749.302 78.9082 752.153 79.9755C755.003 81.0427 757.159 82.1099 758.621 83.1772C760.156 84.1555 761.142 84.6446 761.581 84.6446C762.165 84.6446 763.225 84.1555 764.76 83.1772C766.295 82.1099 767.793 81.0427 769.255 79.9755C770.716 78.9082 771.63 78.3746 771.995 78.3746C772.215 78.3746 772.434 78.4635 772.653 78.6414C772.872 78.7304 773.019 79.0416 773.092 79.5753L779.56 116.128C779.706 116.662 779.742 117.151 779.669 117.596C779.596 117.951 779.45 118.218 779.231 118.396C779.011 118.485 778.792 118.485 778.573 118.396C778.427 118.218 778.244 117.996 778.025 117.729C774.517 108.48 770.936 101.142 767.281 95.7172C763.627 90.2031 759.717 86.2455 755.551 83.8442C751.458 81.4429 746.964 80.2423 742.067 80.2423C735.928 80.2423 731.104 82.1544 727.596 85.9787C724.088 89.714 722.334 94.7389 722.334 101.053C722.334 104.967 723.065 108.524 724.527 111.726C725.988 114.927 728.583 117.862 732.31 120.53C736.111 123.11 741.446 125.6 748.316 128.001C755.697 130.669 761.617 133.871 766.075 137.606C770.607 141.253 773.896 145.522 775.942 150.413C778.061 155.305 779.121 160.774 779.121 166.822C779.121 173.492 777.806 179.317 775.175 184.298C772.543 189.189 768.926 193.014 764.321 195.771C759.717 198.528 754.492 199.906 748.645 199.906C744.698 199.906 741.263 199.15 738.34 197.638C735.416 196.215 733.078 194.792 731.324 193.369C729.57 191.857 728.473 191.101 728.035 191.101C727.669 191.101 726.902 191.813 725.733 193.236C724.563 194.57 723.321 195.904 722.005 197.238C720.763 198.572 719.886 199.239 719.374 199.239C719.155 199.239 718.899 199.106 718.607 198.839C718.314 198.572 718.095 198.038 717.949 197.238L712.577 165.354C712.504 164.554 712.468 163.976 712.468 163.62C712.541 163.175 712.724 162.864 713.016 162.686C713.162 162.508 713.308 162.508 713.454 162.686C713.674 162.864 713.82 163.086 713.893 163.353C719.155 176.071 724.673 185.009 730.447 190.168C736.22 195.237 741.848 197.772 747.329 197.772Z" stroke="#0B0B0B" stroke-width="2" mask="url(#path-1-outside-1_63_114)"/>
<path d="M799.616 197.371C799.47 197.371 799.324 197.327 799.178 197.238C799.032 197.06 798.959 196.838 798.959 196.571C798.959 196.393 799.068 196.215 799.287 196.037C799.507 195.771 799.872 195.593 800.384 195.504L807.181 194.437C808.131 194.17 808.788 193.725 809.154 193.102C809.592 192.48 809.812 191.679 809.812 190.701V13.6734C809.812 13.2287 809.702 12.873 809.483 12.6062C809.337 12.3394 809.008 12.206 808.496 12.206H799.945C799.726 12.206 799.543 12.1171 799.397 11.9392C799.251 11.7613 799.178 11.5834 799.178 11.4056C799.178 11.1387 799.251 10.9609 799.397 10.8719C799.543 10.6941 799.762 10.5607 800.055 10.4717L826.365 1.53363C826.95 1.26682 827.352 1.13341 827.571 1.13341C827.791 1.04447 828.01 1 828.229 1C828.594 1 828.85 1.17788 828.996 1.53363C829.143 1.80044 829.216 2.11171 829.216 2.46745V190.568C829.216 191.635 829.435 192.48 829.873 193.102C830.312 193.725 830.97 194.17 831.847 194.437L838.753 195.637C839.484 195.726 839.85 196.037 839.85 196.571C839.85 197.105 839.557 197.371 838.973 197.371H799.616ZM825.927 153.081L869.12 99.7193C872.117 95.984 873.322 92.6489 872.738 89.714C872.153 86.7791 870.034 84.9114 866.379 84.111L861.994 83.3106C861.629 83.2216 861.373 83.0882 861.227 82.9104C861.081 82.7325 861.008 82.5546 861.008 82.3767C861.008 82.1099 861.081 81.9321 861.227 81.8431C861.446 81.6653 861.702 81.5763 861.994 81.5763H896.527C896.965 81.5763 897.258 81.6653 897.404 81.8431C897.55 81.9321 897.623 82.1099 897.623 82.3767C897.623 82.6436 897.514 82.8659 897.294 83.0438C897.148 83.1327 896.783 83.2661 896.198 83.444C891.667 84.4223 887.245 86.2899 882.933 89.047C878.621 91.804 874.528 95.5838 870.655 100.386L826.913 154.549L825.927 153.081ZM856.403 116.795L890.168 187.633C891.411 190.301 892.726 192.169 894.115 193.236C895.577 194.303 897.44 195.104 899.706 195.637C900.218 195.815 900.51 195.993 900.583 196.171C900.729 196.349 900.802 196.526 900.802 196.704C900.802 196.882 900.729 197.06 900.583 197.238C900.51 197.327 900.327 197.371 900.035 197.371H858.705C858.486 197.371 858.303 197.327 858.157 197.238C858.011 197.06 857.938 196.838 857.938 196.571C857.938 196.393 858.011 196.215 858.157 196.037C858.377 195.859 858.705 195.726 859.144 195.637L864.187 194.837C865.941 194.57 867.074 193.814 867.585 192.569C868.097 191.235 867.841 189.545 866.818 187.499L842.59 134.138L856.403 116.795Z" stroke="#0B0B0B" stroke-width="2" mask="url(#path-1-outside-1_63_114)"/>
<path d="M970.852 185.098V184.164L969.976 185.098V104.789C969.976 96.8734 968.697 90.8257 966.139 86.6457C963.581 82.3767 959.744 80.2423 954.628 80.2423C948.927 80.2423 944.761 81.8876 942.13 85.1782C939.499 88.4689 938.184 91.8929 938.184 95.4504V104.655C938.184 108.302 937.16 111.326 935.114 113.727C933.141 116.039 930.656 117.195 927.659 117.195C925.394 117.195 923.494 116.306 921.959 114.527C920.497 112.66 919.766 109.947 919.766 106.39C919.766 101.943 921.155 97.5849 923.932 93.3159C926.782 89.047 930.948 85.534 936.43 82.777C941.984 80.0199 948.781 78.6414 956.82 78.6414C967.856 78.6414 976.042 81.6208 981.377 87.5795C986.785 93.4493 989.489 101.631 989.489 112.126V182.964C989.489 186.61 989.964 189.234 990.914 190.835C991.937 192.347 993.18 193.102 994.642 193.102C995.957 193.102 997.127 192.613 998.15 191.635C999.246 190.657 999.867 189.189 1000.01 187.233C1000.09 186.877 1000.16 186.655 1000.23 186.566C1000.38 186.477 1000.49 186.432 1000.56 186.432C1000.78 186.432 1000.89 186.477 1000.89 186.566C1000.96 186.655 1001 186.877 1001 187.233C1001 188.656 1000.49 190.345 999.465 192.302C998.442 194.259 996.798 195.948 994.532 197.371C992.266 198.883 989.27 199.639 985.543 199.639C980.573 199.639 976.882 198.305 974.47 195.637C972.058 192.969 970.852 189.456 970.852 185.098ZM914.504 171.758C914.504 162.686 917.61 155.26 923.822 149.479C930.035 143.698 939.499 140.808 952.216 140.808C957.405 140.808 961.68 141.386 965.042 142.542C968.404 143.698 971.51 145.121 974.361 146.811L973.703 147.745C970.853 146.144 967.856 144.855 964.713 143.876C961.644 142.898 958.209 142.409 954.408 142.409C947.831 142.409 942.824 144.721 939.389 149.346C935.954 153.97 934.237 160.241 934.237 168.156C934.237 175.893 935.845 181.941 939.061 186.299C942.349 190.657 946.661 192.836 951.997 192.836C955.651 192.836 959.269 191.857 962.85 189.901C966.431 187.944 969.427 185.098 971.839 181.363L972.826 182.163C969.61 187.855 965.225 192.213 959.671 195.237C954.116 198.261 948.123 199.773 941.692 199.773C933.579 199.773 927.002 197.194 921.959 192.035C916.989 186.788 914.504 180.029 914.504 171.758Z" stroke="#0B0B0B" stroke-width="2" mask="url(#path-1-outside-1_63_114)"/>
</svg>
